<svg width="145" height="40" viewBox="0 0 145 40" fill="none" xmlns="http://www.w3.org/2000/svg">
<path d="M10.7922 3.28898C6.59908 4.0316 3.9668 6.77422 3.9668 10.4198C3.9668 11.8966 4.32958 13.0611 5.19857 14.386C6.85219 16.9092 9.86413 18.4367 13.7957 18.7405C14.8756 18.8248 16.4111 18.7995 16.5123 18.6983C16.5292 18.6814 16.487 18.4704 16.4027 18.2257C16.1749 17.5168 16.2677 16.5801 16.6726 15.6434L17.0017 14.8924L16.9848 13.635C16.9764 12.943 16.9511 12.3692 16.9426 12.3523C16.9258 12.3438 16.3267 12.3692 15.6096 12.4198C13.3317 12.5717 11.2815 12.2932 10.2522 11.694C9.63634 11.3312 9.3073 10.9936 9.02889 10.4451C8.80109 9.97253 8.77578 9.86282 8.77578 9.07801C8.78422 6.94299 9.71227 5.24679 11.7962 3.60966C12.083 3.37337 12.3192 3.17084 12.3192 3.15396C12.3192 3.07801 11.6443 3.13708 10.7922 3.28898Z" fill="white"/>
<path d="M39.993 3.15503C39.993 3.17191 40.2376 3.38288 40.5329 3.61073C42.5831 5.22254 43.5364 6.9525 43.5364 9.07065C43.5364 9.86389 43.5196 9.9736 43.2749 10.4462C42.6843 11.636 41.4441 12.2268 39.1493 12.4124C38.3309 12.4799 37.6475 12.4884 36.7026 12.4209C35.9855 12.3702 35.3865 12.3449 35.3696 12.3533C35.3612 12.3702 35.3359 12.9441 35.3274 13.636L35.3105 14.8934L35.6396 15.6445C36.0867 16.6825 36.1458 17.712 35.8083 18.5896C35.6818 18.9356 38.9299 18.8344 40.7185 18.4293C42.9459 17.9398 44.5236 17.1297 45.9662 15.7458C47.0462 14.7162 47.603 13.8217 48.067 12.404C48.3792 11.4588 48.4298 9.83858 48.1851 8.85968C47.5608 6.37022 45.73 4.52212 43.0387 3.66136C42.1106 3.35756 39.993 3.01157 39.993 3.15503Z" fill="white"/>
<path d="M21.8126 10.6901C20.2687 10.8758 19.1044 11.2893 18.151 11.9813L17.7798 12.2513L17.822 13.2977C17.8473 13.8715 17.881 14.3694 17.9063 14.3948L17.9434 15.1036C17.9434 15.1036 16.7589 17.6775 17.6448 18.6817L16.9783 19.4327C16.818 19.6353 16.5227 21.1458 16.4805 21.9897C16.3877 23.7112 16.8349 24.8505 18.1341 26.15C19.0453 27.0699 19.3997 27.6606 19.6443 28.6648C19.7203 29.0024 19.8046 29.2808 19.8299 29.2808C19.8552 29.2808 19.9396 29.1711 20.0155 29.0445C20.218 28.707 20.9436 28.015 21.3486 27.7703C21.7451 27.5424 21.7704 27.5762 21.4414 27.9475C21.0111 28.4454 20.0662 29.8969 19.8131 30.4538C19.6781 30.7576 19.5431 31.2133 19.5093 31.4665C19.3997 32.2851 19.5768 32.7407 20.1674 33.1458C20.4205 33.323 20.5302 33.4749 20.6314 33.7872C20.9352 34.7829 21.6017 35.3737 22.6816 35.6015C23.1456 35.6943 23.8796 35.7281 23.8796 35.6521C23.8796 35.6268 23.8037 35.4496 23.7109 35.2724C23.5421 34.9433 23.5337 34.9348 23.0612 34.9348C22.2766 34.9348 21.6354 34.4285 21.3908 33.6015C21.3401 33.4412 21.3654 33.4159 21.5848 33.4159C22.4454 33.4159 23.6603 34.1163 24.3605 35.0192L24.7486 35.5256H26.1576H27.5665L27.9715 35.0108C28.6802 34.0994 29.8698 33.4159 30.7303 33.4159C30.9497 33.4159 30.975 33.4412 30.9244 33.6015C30.8062 34.015 30.4013 34.5635 30.0807 34.7407C29.836 34.8758 29.5998 34.9348 29.2623 34.9348C28.7814 34.9348 28.773 34.9348 28.6042 35.2724C28.5114 35.4496 28.4355 35.6268 28.4355 35.6521C28.4355 35.7365 29.2201 35.6943 29.7685 35.5678C30.7219 35.3399 31.4221 34.707 31.6837 33.8125C31.7849 33.4665 31.8862 33.323 32.1477 33.1458C32.3249 33.0192 32.5442 32.8167 32.6202 32.6986C33.1939 31.8294 32.6623 30.2513 31.1775 28.3526C30.5616 27.5762 30.5447 27.5256 30.9497 27.7618C31.3631 28.015 32.0971 28.707 32.2996 29.0445C32.3755 29.1711 32.4599 29.2808 32.4852 29.2808C32.5105 29.2808 32.5948 29.0024 32.6708 28.6648C32.9154 27.6606 33.2698 27.0614 34.181 26.15C35.4802 24.8505 35.9274 23.7112 35.8346 21.9897C35.784 21.0024 35.4634 19.4918 35.2862 19.4327L34.6703 18.6817C35.5309 17.7028 35.595 16.1585 34.4392 15.1458C34.4392 15.1458 34.4003 14.6476 34.4003 14.3948C34.4003 14.1938 34.4763 13.8884 34.5016 13.323L34.5522 12.2935L34.2569 12.0572C34.0966 11.9222 33.7169 11.6859 33.4132 11.5256C31.6921 10.631 29.3973 10.4201 27.0012 10.9433C26.2166 11.1205 26.0985 11.1205 25.3139 10.9517C24.1412 10.6901 22.6647 10.5804 21.8126 10.6901Z" fill="white"/>
<path d="M14.0496 19.3234C13.1552 19.5175 11.9403 19.9563 10.4639 20.623C9.18994 21.1968 7.06387 22.3108 7.03012 22.412C6.99637 22.5386 8.00879 23.2137 8.91997 23.6779C9.78052 24.1167 10.8014 24.3867 11.586 24.3867C12.6237 24.3867 14.2352 23.7707 15.197 23.0112L15.661 22.6314L15.7622 21.7201C15.8213 21.2137 15.9394 20.4964 16.0322 20.1336C16.2178 19.3909 16.2178 19.3909 15.6947 19.239C15.2813 19.1209 14.927 19.1378 14.0496 19.3234Z" fill="white"/>
<path d="M36.7451 19.2125C36.2726 19.3138 36.0955 19.4319 36.1545 19.6092C36.2979 20.1239 36.5257 21.3898 36.5848 21.9636L36.6439 22.6303L37.1163 23.0016C37.9009 23.6345 38.9893 24.1239 39.9342 24.2843C40.702 24.4108 40.8032 24.4108 41.6216 24.2758C42.2965 24.1577 42.6593 24.0395 43.3258 23.7104C44.2286 23.2716 45.3169 22.5374 45.2832 22.4108C45.2157 22.1914 41.3432 20.3349 39.622 19.702C38.6096 19.3307 37.2513 19.0944 36.7451 19.2125Z" fill="white"/>
<path d="M22.4091 36.3524C22.3332 36.479 22.9153 37.2554 23.2612 37.4832C24.1724 38.0824 25.3114 38.479 26.155 38.479C26.9903 38.479 28.3655 37.998 29.1332 37.4326C29.4201 37.2301 29.9685 36.4621 29.901 36.3524C29.8419 36.2596 22.4682 36.2596 22.4091 36.3524Z" fill="white"/>
<line x1="60.0707" x2="60.0707" y2="40" stroke="white" stroke-width="0.2"/>
<path d="M144.923 16.0805V18.007H138.925V16.0805H144.923ZM139.533 4.18994V18.007H137.227V4.18994H139.533ZM144.116 9.9407V11.8386H138.925V9.9407H144.116ZM144.866 4.18994V6.12584H138.925V4.18994H144.866Z" fill="white"/>
<path d="M131.884 4.18994V18.007H129.587V4.18994H131.884ZM135.404 4.18994V6.12584H126.104V4.18994H135.404Z" fill="white"/>
<path d="M116.929 4.18994H121.104C122.015 4.18994 122.787 4.3481 123.42 4.66443C124.052 4.98075 124.533 5.44891 124.862 6.0689C125.197 6.68257 125.365 7.44491 125.365 8.35592C125.365 9.04551 125.261 9.65285 125.052 10.1779C124.849 10.703 124.555 11.1459 124.169 11.5065C123.783 11.8608 123.318 12.136 122.774 12.3321L122.101 12.7022H118.57L118.561 10.7663H121.047C121.496 10.7663 121.87 10.6682 122.167 10.4721C122.464 10.276 122.686 10.004 122.831 9.65601C122.983 9.30806 123.059 8.91265 123.059 8.4698C123.059 7.99531 122.993 7.58409 122.86 7.23614C122.727 6.88186 122.518 6.60982 122.233 6.42002C121.949 6.2239 121.572 6.12584 121.104 6.12584H119.235V18.007H116.929V4.18994ZM123.363 18.007L120.734 11.8007L123.135 11.7912L125.83 17.8836V18.007H123.363Z" fill="white"/>
<path d="M114.584 9.96903V12.3225C114.584 13.2968 114.47 14.1508 114.243 14.8847C114.021 15.6186 113.698 16.2322 113.275 16.7257C112.857 17.2128 112.351 17.5798 111.756 17.8265C111.168 18.0732 110.51 18.1966 109.782 18.1966C109.061 18.1966 108.403 18.0732 107.809 17.8265C107.22 17.5798 106.711 17.2128 106.281 16.7257C105.857 16.2322 105.528 15.6186 105.294 14.8847C105.066 14.1508 104.952 13.2968 104.952 12.3225V9.96903C104.952 8.9821 105.066 8.11853 105.294 7.37834C105.522 6.63181 105.847 6.00865 106.271 5.50886C106.701 5.00907 107.211 4.63265 107.799 4.37959C108.394 4.12653 109.049 4 109.763 4C110.491 4 111.149 4.12653 111.737 4.37959C112.332 4.63265 112.841 5.00907 113.265 5.50886C113.689 6.00865 114.015 6.63181 114.243 7.37834C114.47 8.11853 114.584 8.9821 114.584 9.96903ZM112.297 12.3225V9.95005C112.297 9.24781 112.24 8.64679 112.126 8.147C112.019 7.64088 111.857 7.22966 111.642 6.91334C111.427 6.59069 111.162 6.35345 110.845 6.20161C110.535 6.04345 110.175 5.96437 109.763 5.96437C109.365 5.96437 109.007 6.04345 108.691 6.20161C108.381 6.35345 108.115 6.59069 107.894 6.91334C107.679 7.22966 107.514 7.64088 107.4 8.147C107.293 8.64679 107.239 9.24781 107.239 9.95005V12.3225C107.239 13.0121 107.296 13.6067 107.41 14.1065C107.524 14.6 107.688 15.0049 107.903 15.3212C108.125 15.6312 108.394 15.8621 108.71 16.014C109.026 16.1658 109.384 16.2417 109.782 16.2417C110.187 16.2417 110.548 16.1658 110.864 16.014C111.181 15.8621 111.443 15.6312 111.652 15.3212C111.867 15.0049 112.028 14.6 112.136 14.1065C112.243 13.6067 112.297 13.0121 112.297 12.3225Z" fill="white"/>
<path d="M100.881 13.4992H103.178C103.133 14.4988 102.931 15.3497 102.57 16.0519C102.21 16.7478 101.691 17.2793 101.014 17.6462C100.343 18.0131 99.524 18.1966 98.5561 18.1966C97.8222 18.1966 97.1643 18.0637 96.5822 17.798C96.0065 17.5323 95.5162 17.1496 95.1113 16.6498C94.7064 16.1437 94.3964 15.5268 94.1813 14.7993C93.9726 14.0717 93.8682 13.2461 93.8682 12.3225V9.87413C93.8682 8.95046 93.9757 8.12486 94.1908 7.39732C94.4122 6.66977 94.7286 6.05294 95.1398 5.54682C95.551 5.0407 96.0508 4.65795 96.6392 4.39857C97.2338 4.13286 97.9045 4 98.651 4C99.6063 4 100.41 4.18347 101.061 4.5504C101.713 4.91734 102.216 5.45509 102.57 6.16365C102.925 6.87222 103.13 7.73578 103.187 8.75434H100.891C100.859 8.06476 100.764 7.51436 100.606 7.10313C100.454 6.68559 100.22 6.38508 99.9036 6.20161C99.5936 6.01814 99.1761 5.92641 98.651 5.92641C98.2144 5.92641 97.838 6.00865 97.5217 6.17314C97.2117 6.33763 96.9555 6.58436 96.753 6.91334C96.5569 7.23599 96.4082 7.64405 96.307 8.13751C96.2121 8.62465 96.1647 9.1972 96.1647 9.85515V12.3225C96.1647 12.9551 96.2058 13.515 96.288 14.0022C96.3703 14.4893 96.5031 14.9037 96.6866 15.2453C96.8701 15.5806 97.1136 15.8368 97.4173 16.014C97.721 16.1848 98.1006 16.2702 98.5561 16.2702C99.1002 16.2702 99.5335 16.1848 99.8562 16.014C100.185 15.8432 100.429 15.5553 100.587 15.1504C100.745 14.7455 100.843 14.1951 100.881 13.4992Z" fill="white"/>
<path d="M87.8227 16.0805V18.007H82.0815V16.0805H87.8227ZM82.6888 4.18994V18.007H80.3828V4.18994H82.6888Z" fill="white"/>
<path d="M73.7215 6.08788L70.3811 18.007H67.9707L72.3549 4.18994H73.8543L73.7215 6.08788ZM76.3881 18.007L73.0382 6.08788L72.8769 4.18994H74.4047L78.8079 18.007H76.3881ZM76.445 12.873V14.8089H70.011V12.873H76.445Z" fill="white"/>
<path d="M137.121 28.4473V33.5375H136.458V27.1333H137.091L137.121 28.4473ZM136.997 29.9388L136.683 29.7672C136.699 29.3884 136.756 29.0332 136.855 28.7018C136.957 28.3703 137.097 28.0783 137.275 27.8258C137.456 27.5693 137.677 27.37 137.938 27.228C138.198 27.0859 138.494 27.0149 138.826 27.0149C139.086 27.0149 139.321 27.0583 139.53 27.1451C139.743 27.228 139.926 27.3602 140.08 27.5417C140.234 27.7192 140.353 27.9521 140.436 28.2401C140.518 28.5242 140.56 28.8695 140.56 29.2759V33.5375H139.903V29.2996C139.903 28.8774 139.848 28.5459 139.737 28.3052C139.631 28.0645 139.481 27.8948 139.287 27.7962C139.098 27.6936 138.875 27.6423 138.618 27.6423C138.322 27.6423 138.072 27.7153 137.867 27.8613C137.662 28.0073 137.496 28.1967 137.37 28.4295C137.247 28.6623 137.156 28.9129 137.097 29.1812C137.038 29.4456 137.005 29.6981 136.997 29.9388ZM140.554 29.3824L140.11 29.4061C140.126 29.0944 140.185 28.7965 140.288 28.5124C140.39 28.2243 140.532 27.9698 140.714 27.7488C140.895 27.5239 141.112 27.3464 141.365 27.2161C141.621 27.082 141.911 27.0149 142.235 27.0149C142.515 27.0149 142.766 27.0603 142.987 27.151C143.208 27.2378 143.393 27.3759 143.543 27.5653C143.697 27.7548 143.813 27.9974 143.892 28.2934C143.971 28.5893 144.011 28.9445 144.011 29.3588V33.5375H143.348V29.3529C143.348 28.907 143.292 28.5597 143.182 28.3111C143.075 28.0625 142.925 27.8889 142.732 27.7903C142.543 27.6877 142.322 27.6383 142.069 27.6423C141.821 27.6423 141.602 27.6975 141.412 27.808C141.227 27.9185 141.071 28.0606 140.945 28.2342C140.822 28.4039 140.727 28.5913 140.66 28.7965C140.597 28.9977 140.562 29.193 140.554 29.3824Z" fill="white"/>
<path d="M134.073 32.0578V27.1333H134.73V33.5375H134.09L134.073 32.0578ZM134.191 30.8622L134.511 30.8504C134.511 31.2528 134.469 31.6257 134.386 31.969C134.308 32.3084 134.183 32.6043 134.014 32.8569C133.848 33.1094 133.631 33.3067 133.362 33.4488C133.098 33.5869 132.776 33.6559 132.398 33.6559C132.133 33.6559 131.891 33.6105 131.67 33.5198C131.453 33.429 131.267 33.2889 131.113 33.0995C130.959 32.9062 130.839 32.6576 130.752 32.3538C130.669 32.046 130.628 31.6731 130.628 31.2351V27.1333H131.285V31.2469C131.285 31.5823 131.316 31.8664 131.38 32.0992C131.443 32.3281 131.53 32.5096 131.64 32.6438C131.754 32.7779 131.883 32.8746 132.025 32.9338C132.167 32.993 132.319 33.0226 132.481 33.0226C132.911 33.0226 133.248 32.922 133.493 32.7207C133.741 32.5195 133.919 32.2551 134.025 31.9276C134.136 31.6001 134.191 31.245 134.191 30.8622Z" fill="white"/>
<path d="M128.811 27.1333V33.5376H128.154V27.1333H128.811ZM128.054 25.2925C128.054 25.1505 128.091 25.0341 128.166 24.9433C128.245 24.8486 128.354 24.8013 128.492 24.8013C128.626 24.8013 128.73 24.8486 128.805 24.9433C128.884 25.0341 128.924 25.1505 128.924 25.2925C128.924 25.4228 128.884 25.5332 128.805 25.624C128.73 25.7148 128.626 25.7601 128.492 25.7601C128.354 25.7601 128.245 25.7148 128.166 25.624C128.091 25.5332 128.054 25.4228 128.054 25.2925Z" fill="white"/>
<path d="M119.472 28.4473V33.5375H118.809V27.1333H119.442L119.472 28.4473ZM119.347 29.9388L119.034 29.7672C119.049 29.3884 119.107 29.0332 119.205 28.7018C119.308 28.3703 119.448 28.0783 119.625 27.8258C119.807 27.5693 120.028 27.37 120.288 27.228C120.549 27.0859 120.845 27.0149 121.176 27.0149C121.437 27.0149 121.671 27.0583 121.88 27.1451C122.094 27.228 122.277 27.3602 122.431 27.5417C122.585 27.7192 122.703 27.9521 122.786 28.2401C122.869 28.5242 122.91 28.8695 122.91 29.2759V33.5375H122.253V29.2996C122.253 28.8774 122.198 28.5459 122.088 28.3052C121.981 28.0645 121.831 27.8948 121.638 27.7962C121.448 27.6936 121.225 27.6423 120.969 27.6423C120.673 27.6423 120.422 27.7153 120.217 27.8613C120.012 28.0073 119.846 28.1967 119.72 28.4295C119.598 28.6623 119.507 28.9129 119.448 29.1812C119.389 29.4456 119.355 29.6981 119.347 29.9388ZM122.904 29.3824L122.461 29.4061C122.476 29.0944 122.536 28.7965 122.638 28.5124C122.741 28.2243 122.883 27.9698 123.064 27.7488C123.246 27.5239 123.463 27.3464 123.715 27.2161C123.972 27.082 124.262 27.0149 124.585 27.0149C124.866 27.0149 125.116 27.0603 125.337 27.151C125.558 27.2378 125.744 27.3759 125.894 27.5653C126.047 27.7548 126.164 27.9974 126.243 28.2934C126.322 28.5893 126.361 28.9445 126.361 29.3588V33.5375H125.698V29.3529C125.698 28.907 125.643 28.5597 125.532 28.3111C125.426 28.0625 125.276 27.8889 125.083 27.7903C124.893 27.6877 124.672 27.6383 124.42 27.6423C124.171 27.6423 123.952 27.6975 123.763 27.808C123.577 27.9185 123.421 28.0606 123.295 28.2342C123.173 28.4039 123.078 28.5913 123.011 28.7965C122.948 28.9977 122.912 29.193 122.904 29.3824Z" fill="white"/>
<path d="M115.398 33.6618C115.043 33.6618 114.716 33.6046 114.416 33.4902C114.12 33.3718 113.863 33.1942 113.646 32.9575C113.433 32.7168 113.268 32.4149 113.149 32.0519C113.031 31.6849 112.972 31.2528 112.972 30.7556V30.0158C112.972 29.487 113.035 29.0332 113.161 28.6544C113.287 28.2717 113.457 27.9599 113.67 27.7192C113.887 27.4746 114.134 27.297 114.41 27.1865C114.686 27.0721 114.978 27.0149 115.286 27.0149C115.637 27.0149 115.945 27.0721 116.209 27.1865C116.478 27.301 116.703 27.4746 116.884 27.7074C117.066 27.9402 117.202 28.2342 117.292 28.5893C117.383 28.9405 117.429 29.3568 117.429 29.8382V30.3887H113.368V29.7731H116.772V29.6074C116.764 29.1891 116.705 28.834 116.594 28.542C116.487 28.246 116.326 28.0211 116.109 27.8672C115.896 27.7094 115.623 27.6305 115.292 27.6305C115.047 27.6305 114.822 27.6758 114.617 27.7666C114.412 27.8534 114.234 27.9915 114.084 28.1809C113.938 28.3703 113.826 28.6169 113.747 28.9208C113.672 29.2246 113.635 29.5896 113.635 30.0158V30.7556C113.635 31.1463 113.676 31.4856 113.759 31.7737C113.846 32.0578 113.968 32.2945 114.126 32.4839C114.284 32.6694 114.473 32.8095 114.694 32.9042C114.915 32.9949 115.16 33.0403 115.428 33.0403C115.759 33.0403 116.05 32.9851 116.298 32.8746C116.547 32.7602 116.768 32.5885 116.961 32.3597L117.31 32.7976C117.192 32.9515 117.046 33.0956 116.872 33.2297C116.699 33.3599 116.491 33.4645 116.251 33.5434C116.01 33.6223 115.726 33.6618 115.398 33.6618Z" fill="white"/>
<path d="M110.391 28.1868V33.5375H109.734V27.1333H110.374L110.391 28.1868ZM112.256 27.0918L112.238 27.7488C112.167 27.7331 112.1 27.7232 112.037 27.7192C111.974 27.7113 111.905 27.7074 111.83 27.7074C111.581 27.7074 111.364 27.7626 111.179 27.8731C110.993 27.9836 110.835 28.1395 110.705 28.3407C110.579 28.538 110.48 28.7689 110.409 29.0332C110.342 29.2937 110.303 29.5758 110.291 29.8796L110.06 29.9803C110.06 29.5659 110.095 29.1792 110.166 28.8202C110.237 28.4611 110.346 28.1454 110.492 27.8731C110.642 27.6009 110.829 27.3898 111.054 27.2398C111.283 27.0899 111.551 27.0149 111.859 27.0149C111.93 27.0149 112.003 27.0228 112.078 27.0386C112.157 27.0504 112.216 27.0682 112.256 27.0918Z" fill="white"/>
<path d="M104.49 28.3644V35.9998H103.833V27.1333H104.443L104.49 28.3644ZM108.207 30.0394V30.6373C108.207 31.1542 108.162 31.602 108.071 31.9808C107.98 32.3596 107.846 32.6734 107.668 32.9219C107.491 33.1705 107.274 33.356 107.017 33.4783C106.765 33.6006 106.477 33.6618 106.153 33.6618C105.834 33.6618 105.551 33.6066 105.307 33.4961C105.062 33.3856 104.853 33.2297 104.679 33.0285C104.51 32.8233 104.374 32.5846 104.271 32.3123C104.168 32.0361 104.097 31.7322 104.058 31.4008V29.4298C104.101 29.0668 104.176 28.7373 104.283 28.4413C104.389 28.1454 104.527 27.8909 104.697 27.6778C104.867 27.4647 105.07 27.301 105.307 27.1865C105.548 27.0721 105.824 27.0149 106.135 27.0149C106.467 27.0149 106.761 27.0721 107.017 27.1865C107.274 27.297 107.491 27.4746 107.668 27.7192C107.846 27.9599 107.98 28.2736 108.071 28.6603C108.162 29.0431 108.207 29.5028 108.207 30.0394ZM107.55 30.6373V30.0394C107.55 29.6251 107.519 29.27 107.455 28.974C107.392 28.6742 107.296 28.4256 107.165 28.2283C107.039 28.031 106.875 27.885 106.674 27.7903C106.477 27.6916 106.244 27.6423 105.976 27.6423C105.703 27.6423 105.469 27.6936 105.271 27.7962C105.078 27.8948 104.916 28.027 104.786 28.1928C104.66 28.3585 104.557 28.54 104.478 28.7373C104.403 28.9306 104.348 29.122 104.312 29.3114V31.5547C104.38 31.8151 104.48 32.0598 104.614 32.2886C104.748 32.5175 104.928 32.701 105.153 32.8391C105.378 32.9732 105.656 33.0403 105.987 33.0403C106.256 33.0403 106.487 32.993 106.68 32.8983C106.877 32.7996 107.039 32.6516 107.165 32.4544C107.296 32.2531 107.392 32.0025 107.455 31.7027C107.519 31.4028 107.55 31.0476 107.55 30.6373Z" fill="white"/>
<path d="M98.8914 31.9631C98.8914 31.7855 98.844 31.6237 98.7493 31.4777C98.6586 31.3317 98.5067 31.1877 98.2936 31.0457C98.0844 30.9036 97.7984 30.7497 97.4353 30.584C97.1473 30.4538 96.8888 30.3275 96.66 30.2052C96.4311 30.0829 96.2377 29.9526 96.0799 29.8145C95.926 29.6764 95.8057 29.5206 95.7189 29.3469C95.636 29.1694 95.5946 28.9602 95.5946 28.7195C95.5946 28.4788 95.6399 28.2559 95.7307 28.0507C95.8214 27.8455 95.9497 27.666 96.1154 27.5121C96.2851 27.3542 96.4863 27.2319 96.7191 27.1451C96.9559 27.0583 97.2203 27.0149 97.5123 27.0149C97.9305 27.0149 98.2877 27.0958 98.5836 27.2576C98.8795 27.4154 99.1084 27.6344 99.2702 27.9146C99.432 28.1947 99.5129 28.5183 99.5129 28.8853H98.8499C98.8499 28.6643 98.7967 28.4591 98.6901 28.2697C98.5875 28.0803 98.4376 27.9264 98.2403 27.808C98.043 27.6896 97.8003 27.6305 97.5123 27.6305C97.2163 27.6305 96.9737 27.6837 96.7843 27.7903C96.5988 27.8929 96.4627 28.025 96.3759 28.1868C96.293 28.3486 96.2516 28.5183 96.2516 28.6959C96.2516 28.8261 96.2713 28.9425 96.3107 29.0451C96.3541 29.1437 96.4252 29.2404 96.5238 29.3351C96.6264 29.4259 96.7685 29.5225 96.95 29.6251C97.1354 29.7238 97.3643 29.8421 97.6366 29.9803C98.0312 30.1499 98.3705 30.3196 98.6546 30.4893C98.9387 30.655 99.1577 30.8503 99.3116 31.0753C99.4655 31.2962 99.5425 31.5764 99.5425 31.9157C99.5425 32.1801 99.4951 32.4208 99.4004 32.6378C99.3057 32.8509 99.1715 33.0344 98.9979 33.1883C98.8243 33.3382 98.6132 33.4546 98.3646 33.5375C98.12 33.6164 97.8477 33.6559 97.5478 33.6559C97.0901 33.6559 96.7014 33.5691 96.3818 33.3955C96.0661 33.2218 95.8254 32.993 95.6597 32.7089C95.4979 32.4248 95.417 32.117 95.417 31.7855H96.074C96.0898 32.1209 96.1726 32.3794 96.3226 32.5609C96.4765 32.7424 96.6639 32.8667 96.8849 32.9338C97.1058 33.0009 97.3268 33.0344 97.5478 33.0344C97.8358 33.0344 98.0805 32.9871 98.2817 32.8924C98.483 32.7976 98.6349 32.6694 98.7375 32.5076C98.8401 32.3419 98.8914 32.1604 98.8914 31.9631Z" fill="white"/>
<path d="M92.2432 33.6618C91.888 33.6618 91.5605 33.6046 91.2606 33.4902C90.9647 33.3718 90.7082 33.1942 90.4912 32.9575C90.2781 32.7168 90.1124 32.4149 89.994 32.0519C89.8756 31.6849 89.8164 31.2528 89.8164 30.7556V30.0158C89.8164 29.487 89.8795 29.0332 90.0058 28.6544C90.1321 28.2717 90.3018 27.9599 90.5148 27.7192C90.7319 27.4746 90.9785 27.297 91.2547 27.1865C91.5309 27.0721 91.8229 27.0149 92.1307 27.0149C92.4819 27.0149 92.7897 27.0721 93.054 27.1865C93.3224 27.301 93.5473 27.4746 93.7288 27.7074C93.9103 27.9402 94.0464 28.2342 94.1372 28.5893C94.228 28.9405 94.2733 29.3568 94.2733 29.8382V30.3887H90.213V29.7731H93.6163V29.6074C93.6084 29.1891 93.5493 28.834 93.4388 28.542C93.3322 28.246 93.1704 28.0211 92.9534 27.8672C92.7403 27.7094 92.4681 27.6305 92.1366 27.6305C91.892 27.6305 91.667 27.6758 91.4619 27.7666C91.2567 27.8534 91.0791 27.9915 90.9292 28.1809C90.7832 28.3703 90.6707 28.6169 90.5918 28.9208C90.5168 29.2246 90.4793 29.5896 90.4793 30.0158V30.7556C90.4793 31.1463 90.5208 31.4856 90.6036 31.7737C90.6904 32.0578 90.8128 32.2945 90.9706 32.4839C91.1284 32.6694 91.3178 32.8095 91.5388 32.9042C91.7598 32.9949 92.0044 33.0403 92.2727 33.0403C92.6042 33.0403 92.8942 32.9851 93.1428 32.8746C93.3914 32.7602 93.6124 32.5885 93.8057 32.3597L94.155 32.7976C94.0366 32.9515 93.8906 33.0956 93.717 33.2297C93.5433 33.3599 93.3362 33.4645 93.0955 33.5434C92.8548 33.6223 92.5707 33.6618 92.2432 33.6618Z" fill="white"/>
<path d="M84.9412 28.5005V33.5375H84.2842V27.1333H84.9116L84.9412 28.5005ZM84.7932 29.9388L84.5032 29.7672C84.519 29.3884 84.5801 29.0332 84.6867 28.7018C84.7972 28.3703 84.9471 28.0783 85.1365 27.8258C85.3259 27.5693 85.5488 27.37 85.8053 27.228C86.0618 27.0859 86.3459 27.0149 86.6577 27.0149C86.922 27.0149 87.1608 27.0583 87.3738 27.1451C87.5869 27.2319 87.7665 27.3681 87.9125 27.5535C88.0624 27.739 88.1768 27.9816 88.2558 28.2815C88.3347 28.5814 88.3741 28.9425 88.3741 29.3647V33.5375H87.7171V29.3588C87.7171 28.9208 87.6678 28.5775 87.5692 28.3289C87.4705 28.0803 87.3285 27.9047 87.143 27.8021C86.9615 27.6956 86.7425 27.6423 86.486 27.6423C86.2137 27.6423 85.973 27.7153 85.7639 27.8613C85.5587 28.0073 85.3831 28.1967 85.2371 28.4295C85.0951 28.6623 84.9866 28.9129 84.9116 29.1812C84.8366 29.4456 84.7972 29.6981 84.7932 29.9388Z" fill="white"/>
<path d="M81.2703 28.1868V33.5375H80.6133V27.1333H81.2525L81.2703 28.1868ZM83.1347 27.0918L83.117 27.7488C83.0459 27.7331 82.9789 27.7232 82.9157 27.7192C82.8526 27.7113 82.7835 27.7074 82.7086 27.7074C82.46 27.7074 82.2429 27.7626 82.0575 27.8731C81.872 27.9836 81.7142 28.1395 81.584 28.3407C81.4577 28.538 81.3591 28.7689 81.288 29.0332C81.221 29.2937 81.1815 29.5758 81.1697 29.8796L80.9388 29.9803C80.9388 29.5659 80.9743 29.1792 81.0454 28.8202C81.1164 28.4611 81.2249 28.1454 81.3709 27.8731C81.5208 27.6009 81.7083 27.3898 81.9332 27.2398C82.1621 27.0899 82.4304 27.0149 82.7382 27.0149C82.8092 27.0149 82.8822 27.0228 82.9572 27.0386C83.0361 27.0504 83.0953 27.0682 83.1347 27.0918Z" fill="white"/>
<path d="M78.1514 32.3892V28.903C78.1514 28.6031 78.1001 28.3605 77.9976 28.175C77.895 27.9856 77.745 27.8475 77.5477 27.7607C77.3504 27.6739 77.1077 27.6305 76.8197 27.6305C76.5474 27.6305 76.3047 27.6857 76.0917 27.7962C75.8825 27.9027 75.7188 28.0527 75.6004 28.246C75.486 28.4354 75.4288 28.6544 75.4288 28.903L74.7718 28.8971C74.7718 28.6525 74.8211 28.4177 74.9197 28.1928C75.0184 27.9639 75.1585 27.7626 75.34 27.589C75.5215 27.4115 75.7385 27.2714 75.991 27.1688C76.2475 27.0662 76.5316 27.0149 76.8434 27.0149C77.2261 27.0149 77.5655 27.0761 77.8614 27.1984C78.1574 27.3207 78.3882 27.5219 78.5539 27.8021C78.7236 28.0823 78.8084 28.4532 78.8084 28.9149V32.188C78.8084 32.4129 78.8223 32.6438 78.8499 32.8805C78.8814 33.1173 78.9229 33.3106 78.9742 33.4606V33.5375H78.2757C78.2323 33.3994 78.2008 33.2238 78.181 33.0107C78.1613 32.7937 78.1514 32.5865 78.1514 32.3892ZM78.2876 29.7968L78.3053 30.3591H77.1689C76.8611 30.3591 76.5908 30.3926 76.358 30.4597C76.1252 30.5268 75.9299 30.6234 75.772 30.7497C75.6182 30.876 75.5018 31.0259 75.4228 31.1995C75.3439 31.3732 75.3045 31.5705 75.3045 31.7914C75.3045 32.0755 75.3498 32.3084 75.4406 32.4899C75.5313 32.6674 75.6635 32.7996 75.8372 32.8864C76.0147 32.9693 76.2258 33.0107 76.4705 33.0107C76.794 33.0107 77.0782 32.9476 77.3228 32.8213C77.5714 32.6911 77.7746 32.5195 77.9324 32.3064C78.0903 32.0894 78.1929 31.8605 78.2402 31.6198L78.4178 32.0223C78.3783 32.2038 78.3053 32.3892 78.1988 32.5786C78.0923 32.7681 77.9541 32.9456 77.7845 33.1113C77.6148 33.2731 77.4136 33.4053 77.1807 33.5079C76.9479 33.6105 76.6855 33.6618 76.3935 33.6618C76.0423 33.6618 75.7346 33.5947 75.4702 33.4606C75.2098 33.3264 75.0065 33.1232 74.8605 32.8509C74.7185 32.5786 74.6475 32.2432 74.6475 31.8447C74.6475 31.5488 74.6968 31.2765 74.7954 31.0279C74.898 30.7793 75.0499 30.5643 75.2512 30.3827C75.4524 30.1973 75.705 30.0533 76.0088 29.9507C76.3126 29.8481 76.6658 29.7968 77.0683 29.7968H78.2876Z" fill="white"/>
<path d="M72.6644 30.8447H73.3451C73.3056 31.4879 73.1774 32.0186 72.9603 32.4369C72.7433 32.8512 72.4414 33.159 72.0547 33.3602C71.672 33.5615 71.2083 33.6621 70.6638 33.6621C70.2495 33.6621 69.8766 33.5812 69.5451 33.4194C69.2137 33.2576 68.9296 33.0229 68.6928 32.7151C68.46 32.4073 68.2805 32.0364 68.1542 31.6023C68.0319 31.1643 67.9707 30.6711 67.9707 30.1226V28.2759C67.9707 27.7353 68.0319 27.2519 68.1542 26.8258C68.2805 26.3957 68.462 26.0307 68.6987 25.7308C68.9394 25.4269 69.2275 25.1961 69.5629 25.0383C69.9022 24.8804 70.287 24.8015 70.7171 24.8015C71.2379 24.8015 71.6858 24.9002 72.0607 25.0975C72.4395 25.2948 72.7374 25.6006 72.9544 26.0149C73.1754 26.4292 73.3056 26.9639 73.3451 27.6189H72.6644C72.6289 27.0902 72.5342 26.666 72.3803 26.3463C72.2264 26.0267 72.0113 25.7959 71.7351 25.6538C71.4628 25.5078 71.1235 25.4348 70.7171 25.4348C70.3817 25.4348 70.0857 25.4999 69.8292 25.6302C69.5767 25.7564 69.3616 25.9419 69.1841 26.1865C69.0105 26.4272 68.8783 26.7232 68.7875 27.0744C68.6968 27.4216 68.6514 27.8182 68.6514 28.2641V30.1226C68.6514 30.5606 68.6948 30.9591 68.7816 31.3182C68.8684 31.6733 68.9947 31.9792 69.1604 32.2356C69.3301 32.4921 69.5392 32.6894 69.7878 32.8275C70.0403 32.9617 70.3323 33.0288 70.6638 33.0288C71.09 33.0288 71.4431 32.9617 71.7233 32.8275C72.0034 32.6934 72.2205 32.4684 72.3744 32.1528C72.5282 31.8332 72.6249 31.3971 72.6644 30.8447Z" fill="white"/>
</svg>
