<svg width="33" height="40" viewBox="0 0 33 40" fill="none" xmlns="http://www.w3.org/2000/svg">
<path d="M29.6396 35.806V37.9878H29.3555V35.2428H29.6269L29.6396 35.806ZM29.5863 36.4453L29.4519 36.3717C29.4586 36.2093 29.4832 36.0571 29.5254 35.9151C29.5694 35.773 29.6295 35.6478 29.7056 35.5396C29.7834 35.4296 29.8781 35.3442 29.9897 35.2833C30.1013 35.2225 30.2282 35.192 30.3703 35.192C30.4819 35.192 30.5825 35.2106 30.6722 35.2478C30.7635 35.2833 30.8421 35.34 30.9081 35.4178C30.9741 35.4939 31.0248 35.5937 31.0603 35.7172C31.0958 35.8389 31.1136 35.9869 31.1136 36.1611V37.9878H30.832V36.1713C30.832 35.9903 30.8083 35.8482 30.761 35.7451C30.7153 35.6419 30.651 35.5692 30.5681 35.5269C30.487 35.4829 30.3914 35.4609 30.2815 35.4609C30.1546 35.4609 30.0472 35.4922 29.9593 35.5548C29.8713 35.6174 29.8003 35.6986 29.7462 35.7984C29.6937 35.8981 29.6548 36.0055 29.6295 36.1206C29.6041 36.2339 29.5897 36.3421 29.5863 36.4453ZM31.1111 36.2068L30.9208 36.217C30.9276 36.0833 30.9529 35.9556 30.9969 35.8339C31.0409 35.7104 31.1018 35.6013 31.1796 35.5066C31.2574 35.4102 31.3504 35.3341 31.4586 35.2783C31.5686 35.2208 31.6929 35.192 31.8316 35.192C31.9516 35.192 32.059 35.2115 32.1538 35.2504C32.2485 35.2876 32.328 35.3468 32.3922 35.428C32.4582 35.5091 32.5081 35.6132 32.5419 35.74C32.5757 35.8669 32.5927 36.0191 32.5927 36.1967V37.9878H32.3085V36.1941C32.3085 36.003 32.2848 35.8542 32.2375 35.7476C32.1918 35.6411 32.1275 35.5666 32.0447 35.5244C31.9635 35.4804 31.8688 35.4592 31.7605 35.4609C31.654 35.4609 31.5601 35.4846 31.4789 35.532C31.3994 35.5793 31.3326 35.6402 31.2785 35.7146C31.2261 35.7874 31.1855 35.8677 31.1567 35.9556C31.1297 36.0419 31.1144 36.1256 31.1111 36.2068Z" fill="white"/>
<path d="M28.333 37.3536V35.2428H28.6146V37.9878H28.3406L28.333 37.3536ZM28.3837 36.8411L28.5207 36.836C28.5207 37.0085 28.5029 37.1684 28.4674 37.3155C28.4336 37.461 28.3803 37.5878 28.3076 37.6961C28.2366 37.8043 28.1435 37.8889 28.0285 37.9498C27.9152 38.0089 27.7774 38.0385 27.615 38.0385C27.5017 38.0385 27.3977 38.0191 27.303 37.9802C27.2099 37.9413 27.1304 37.8813 27.0645 37.8001C26.9985 37.7172 26.9469 37.6106 26.9097 37.4804C26.8742 37.3485 26.8564 37.1887 26.8564 37.0009V35.2428H27.1381V37.006C27.1381 37.1498 27.1516 37.2715 27.1786 37.3713C27.2057 37.4694 27.2429 37.5472 27.2903 37.6047C27.3393 37.6622 27.3943 37.7037 27.4552 37.729C27.5161 37.7544 27.5812 37.7671 27.6505 37.7671C27.8349 37.7671 27.9795 37.724 28.0843 37.6377C28.1909 37.5514 28.267 37.4381 28.3127 37.2978C28.36 37.1574 28.3837 37.0052 28.3837 36.8411Z" fill="white"/>
<path d="M26.0777 35.2427V37.9877H25.7961V35.2427H26.0777ZM25.7529 34.4537C25.7529 34.3928 25.769 34.343 25.8011 34.3041C25.835 34.2635 25.8815 34.2432 25.9407 34.2432C25.9982 34.2432 26.043 34.2635 26.0751 34.3041C26.109 34.343 26.1259 34.3928 26.1259 34.4537C26.1259 34.5095 26.109 34.5569 26.0751 34.5958C26.043 34.6347 25.9982 34.6542 25.9407 34.6542C25.8815 34.6542 25.835 34.6347 25.8011 34.5958C25.769 34.5569 25.7529 34.5095 25.7529 34.4537Z" fill="white"/>
<path d="M22.0742 35.806V37.9878H21.79V35.2428H22.0615L22.0742 35.806ZM22.0209 36.4453L21.8864 36.3717C21.8932 36.2093 21.9177 36.0571 21.96 35.9151C22.004 35.773 22.064 35.6478 22.1401 35.5396C22.2179 35.4296 22.3127 35.3442 22.4243 35.2833C22.5359 35.2225 22.6628 35.192 22.8048 35.192C22.9165 35.192 23.0171 35.2106 23.1067 35.2478C23.1981 35.2833 23.2767 35.34 23.3427 35.4178C23.4086 35.4939 23.4594 35.5937 23.4949 35.7172C23.5304 35.8389 23.5482 35.9869 23.5482 36.1611V37.9878H23.2666V36.1713C23.2666 35.9903 23.2429 35.8482 23.1955 35.7451C23.1499 35.6419 23.0856 35.5692 23.0027 35.5269C22.9215 35.4829 22.826 35.4609 22.716 35.4609C22.5892 35.4609 22.4818 35.4922 22.3938 35.5548C22.3059 35.6174 22.2349 35.6986 22.1807 35.7984C22.1283 35.8981 22.0894 36.0055 22.064 36.1206C22.0387 36.2339 22.0243 36.3421 22.0209 36.4453ZM23.5456 36.2068L23.3554 36.217C23.3621 36.0833 23.3875 35.9556 23.4315 35.8339C23.4754 35.7104 23.5363 35.6013 23.6141 35.5066C23.6919 35.4102 23.785 35.3341 23.8932 35.2783C24.0031 35.2208 24.1274 35.192 24.2661 35.192C24.3862 35.192 24.4936 35.2115 24.5883 35.2504C24.683 35.2876 24.7625 35.3468 24.8268 35.428C24.8928 35.5091 24.9427 35.6132 24.9765 35.74C25.0103 35.8669 25.0272 36.0191 25.0272 36.1967V37.9878H24.7431V36.1941C24.7431 36.003 24.7194 35.8542 24.6721 35.7476C24.6264 35.6411 24.5621 35.5666 24.4792 35.5244C24.3981 35.4804 24.3033 35.4592 24.1951 35.4609C24.0885 35.4609 23.9947 35.4846 23.9135 35.532C23.834 35.5793 23.7672 35.6402 23.7131 35.7146C23.6606 35.7874 23.62 35.8677 23.5913 35.9556C23.5642 36.0419 23.549 36.1256 23.5456 36.2068Z" fill="white"/>
<path d="M20.3282 38.041C20.176 38.041 20.0356 38.0165 19.9071 37.9675C19.7803 37.9167 19.6703 37.8406 19.5773 37.7391C19.486 37.636 19.4149 37.5066 19.3642 37.351C19.3135 37.1937 19.2881 37.0085 19.2881 36.7954V36.4783C19.2881 36.2516 19.3151 36.0571 19.3693 35.8948C19.4234 35.7307 19.4961 35.5971 19.5874 35.4939C19.6805 35.3891 19.7862 35.3129 19.9046 35.2656C20.023 35.2165 20.1481 35.192 20.28 35.192C20.4306 35.192 20.5625 35.2165 20.6758 35.2656C20.7908 35.3146 20.8872 35.3891 20.965 35.4888C21.0428 35.5886 21.1012 35.7146 21.1401 35.8669C21.179 36.0174 21.1984 36.1958 21.1984 36.4022V36.6381H19.4581V36.3742H20.9168V36.3032C20.9134 36.1239 20.8881 35.9717 20.8407 35.8466C20.7951 35.7197 20.7257 35.6233 20.6327 35.5573C20.5414 35.4897 20.4247 35.4559 20.2826 35.4559C20.1777 35.4559 20.0813 35.4753 19.9934 35.5142C19.9054 35.5514 19.8293 35.6106 19.765 35.6918C19.7025 35.773 19.6543 35.8787 19.6204 36.0089C19.5883 36.1392 19.5722 36.2956 19.5722 36.4783V36.7954C19.5722 36.9628 19.59 37.1083 19.6255 37.2317C19.6627 37.3535 19.7151 37.455 19.7828 37.5362C19.8505 37.6157 19.9316 37.6757 20.0263 37.7163C20.1211 37.7552 20.2259 37.7747 20.3409 37.7747C20.483 37.7747 20.6073 37.751 20.7139 37.7036C20.8204 37.6546 20.9151 37.581 20.998 37.4829L21.1477 37.6706C21.097 37.7366 21.0344 37.7983 20.96 37.8558C20.8855 37.9117 20.7967 37.9565 20.6936 37.9903C20.5904 38.0241 20.4686 38.041 20.3282 38.041Z" fill="white"/>
<path d="M18.183 35.6943V37.9878H17.9014V35.2428H18.1754L18.183 35.6943ZM18.9821 35.225L18.9745 35.5066C18.9441 35.4998 18.9153 35.4956 18.8883 35.4939C18.8612 35.4905 18.8316 35.4888 18.7995 35.4888C18.6929 35.4888 18.5999 35.5125 18.5204 35.5599C18.4409 35.6072 18.3732 35.674 18.3174 35.7603C18.2633 35.8449 18.221 35.9438 18.1906 36.0571C18.1618 36.1688 18.1449 36.2897 18.1398 36.4199L18.0409 36.463C18.0409 36.2855 18.0561 36.1197 18.0866 35.9658C18.117 35.8119 18.1635 35.6766 18.2261 35.5599C18.2904 35.4432 18.3707 35.3527 18.4671 35.2884C18.5652 35.2242 18.6802 35.192 18.8121 35.192C18.8426 35.192 18.8739 35.1954 18.906 35.2022C18.9398 35.2072 18.9652 35.2148 18.9821 35.225Z" fill="white"/>
<path d="M15.6537 35.7704V39.0432H15.3721V35.2428H15.6334L15.6537 35.7704ZM17.2469 36.4884V36.7446C17.2469 36.9662 17.2274 37.1582 17.1885 37.3205C17.1496 37.4829 17.0921 37.6174 17.016 37.7239C16.9399 37.8305 16.8469 37.91 16.737 37.9624C16.6287 38.0148 16.5053 38.041 16.3666 38.041C16.2296 38.041 16.1086 38.0174 16.0038 37.97C15.8989 37.9227 15.8093 37.8558 15.7349 37.7696C15.6621 37.6816 15.6038 37.5793 15.5598 37.4626C15.5158 37.3442 15.4854 37.214 15.4685 37.0719V36.2271C15.4871 36.0715 15.5192 35.9303 15.5649 35.8034C15.6105 35.6766 15.6697 35.5675 15.7425 35.4762C15.8152 35.3848 15.9023 35.3146 16.0038 35.2656C16.1069 35.2165 16.2253 35.192 16.359 35.192C16.501 35.192 16.627 35.2165 16.737 35.2656C16.8469 35.3129 16.9399 35.3891 17.016 35.4939C17.0921 35.5971 17.1496 35.7315 17.1885 35.8973C17.2274 36.0614 17.2469 36.2584 17.2469 36.4884ZM16.9653 36.7446V36.4884C16.9653 36.3108 16.9518 36.1586 16.9247 36.0318C16.8976 35.9032 16.8562 35.7967 16.8004 35.7121C16.7463 35.6275 16.6761 35.565 16.5898 35.5244C16.5053 35.4821 16.4055 35.4609 16.2905 35.4609C16.1738 35.4609 16.0731 35.4829 15.9886 35.5269C15.9057 35.5692 15.8363 35.6258 15.7805 35.6969C15.7264 35.7679 15.6824 35.8457 15.6486 35.9303C15.6165 36.0132 15.5928 36.0952 15.5776 36.1764V37.1379C15.6063 37.2495 15.6494 37.3544 15.707 37.4525C15.7645 37.5506 15.8414 37.6292 15.9378 37.6884C16.0342 37.7459 16.1535 37.7747 16.2955 37.7747C16.4105 37.7747 16.5095 37.7544 16.5924 37.7138C16.6769 37.6715 16.7463 37.6081 16.8004 37.5235C16.8562 37.4372 16.8976 37.3298 16.9247 37.2013C16.9518 37.0728 16.9653 36.9205 16.9653 36.7446Z" fill="white"/>
<path d="M13.2529 37.3129C13.2529 37.2368 13.2326 37.1675 13.192 37.1049C13.1531 37.0423 13.088 36.9806 12.9966 36.9197C12.907 36.8588 12.7844 36.7929 12.6288 36.7218C12.5053 36.666 12.3945 36.6119 12.2964 36.5594C12.1983 36.507 12.1155 36.4512 12.0478 36.392C11.9819 36.3328 11.9303 36.266 11.8931 36.1916C11.8575 36.1155 11.8398 36.0258 11.8398 35.9227C11.8398 35.8195 11.8592 35.7239 11.8981 35.636C11.937 35.548 11.992 35.4711 12.063 35.4051C12.1358 35.3375 12.222 35.285 12.3218 35.2478C12.4233 35.2106 12.5366 35.192 12.6618 35.192C12.841 35.192 12.9941 35.2267 13.121 35.296C13.2478 35.3637 13.3459 35.4576 13.4152 35.5776C13.4846 35.6977 13.5193 35.8364 13.5193 35.9937H13.2351C13.2351 35.899 13.2123 35.811 13.1666 35.7299C13.1226 35.6487 13.0584 35.5827 12.9738 35.532C12.8892 35.4812 12.7852 35.4559 12.6618 35.4559C12.5349 35.4559 12.4309 35.4787 12.3497 35.5244C12.2702 35.5683 12.2119 35.625 12.1747 35.6943C12.1391 35.7637 12.1214 35.8364 12.1214 35.9125C12.1214 35.9683 12.1298 36.0182 12.1468 36.0622C12.1654 36.1045 12.1958 36.1459 12.2381 36.1865C12.2821 36.2254 12.3429 36.2669 12.4208 36.3108C12.5002 36.3531 12.5983 36.4038 12.715 36.463C12.8842 36.5358 13.0296 36.6085 13.1514 36.6812C13.2732 36.7523 13.367 36.836 13.433 36.9324C13.499 37.0271 13.5319 37.1472 13.5319 37.2926C13.5319 37.406 13.5117 37.5091 13.4711 37.6021C13.4305 37.6935 13.373 37.7721 13.2985 37.8381C13.2241 37.9024 13.1336 37.9523 13.0271 37.9878C12.9222 38.0216 12.8055 38.0385 12.677 38.0385C12.4808 38.0385 12.3142 38.0013 12.1772 37.9269C12.0419 37.8525 11.9387 37.7544 11.8677 37.6326C11.7983 37.5108 11.7637 37.3789 11.7637 37.2368H12.0453C12.052 37.3806 12.0876 37.4914 12.1518 37.5692C12.2178 37.647 12.2981 37.7002 12.3928 37.729C12.4876 37.7578 12.5823 37.7721 12.677 37.7721C12.8005 37.7721 12.9053 37.7518 12.9916 37.7112C13.0778 37.6706 13.1429 37.6157 13.1869 37.5463C13.2309 37.4753 13.2529 37.3975 13.2529 37.3129Z" fill="white"/>
<path d="M10.4044 38.041C10.2522 38.041 10.1118 38.0165 9.98328 37.9675C9.85643 37.9167 9.7465 37.8406 9.65347 37.7391C9.56214 37.636 9.49111 37.5066 9.44037 37.351C9.38963 37.1937 9.36426 37.0085 9.36426 36.7954V36.4783C9.36426 36.2516 9.39132 36.0571 9.44544 35.8948C9.49956 35.7307 9.57229 35.5971 9.66362 35.4939C9.75664 35.3891 9.86235 35.3129 9.98074 35.2656C10.0991 35.2165 10.2243 35.192 10.3562 35.192C10.5067 35.192 10.6387 35.2165 10.752 35.2656C10.867 35.3146 10.9634 35.3891 11.0412 35.4888C11.119 35.5886 11.1774 35.7146 11.2163 35.8669C11.2552 36.0174 11.2746 36.1958 11.2746 36.4022V36.6381H9.53424V36.3742H10.993V36.3032C10.9896 36.1239 10.9642 35.9717 10.9169 35.8466C10.8712 35.7197 10.8019 35.6233 10.7089 35.5573C10.6175 35.4897 10.5008 35.4559 10.3588 35.4559C10.2539 35.4559 10.1575 35.4753 10.0695 35.5142C9.98159 35.5514 9.90548 35.6106 9.84121 35.6918C9.77863 35.773 9.73043 35.8787 9.6966 36.0089C9.66447 36.1392 9.6484 36.2956 9.6484 36.4783V36.7954C9.6484 36.9628 9.66616 37.1083 9.70168 37.2317C9.73889 37.3535 9.79132 37.455 9.85897 37.5362C9.92662 37.6157 10.0078 37.6757 10.1025 37.7163C10.1972 37.7552 10.3021 37.7747 10.4171 37.7747C10.5592 37.7747 10.6835 37.751 10.79 37.7036C10.8966 37.6546 10.9913 37.581 11.0742 37.4829L11.2239 37.6706C11.1731 37.7366 11.1105 37.7983 11.0361 37.8558C10.9617 37.9117 10.8729 37.9565 10.7697 37.9903C10.6666 38.0241 10.5448 38.041 10.4044 38.041Z" fill="white"/>
<path d="M7.27379 35.8288V37.9878H6.99219V35.2428H7.26111L7.27379 35.8288ZM7.21037 36.4453L7.08606 36.3717C7.09282 36.2093 7.11904 36.0571 7.1647 35.9151C7.21206 35.773 7.27633 35.6478 7.35751 35.5396C7.4387 35.4296 7.53426 35.3442 7.64419 35.2833C7.75413 35.2225 7.8759 35.192 8.00952 35.192C8.12284 35.192 8.22516 35.2106 8.31649 35.2478C8.40782 35.285 8.48478 35.3434 8.54736 35.4229C8.61163 35.5024 8.66068 35.6064 8.6945 35.7349C8.72833 35.8635 8.74524 36.0182 8.74524 36.1992V37.9878H8.46364V36.1967C8.46364 36.0089 8.4425 35.8618 8.40021 35.7552C8.35793 35.6487 8.29704 35.5734 8.21755 35.5294C8.13975 35.4838 8.04588 35.4609 7.93594 35.4609C7.81924 35.4609 7.71607 35.4922 7.62643 35.5548C7.53848 35.6174 7.46322 35.6986 7.40064 35.7984C7.33975 35.8981 7.29324 36.0055 7.26111 36.1206C7.22897 36.2339 7.21206 36.3421 7.21037 36.4453Z" fill="white"/>
<path d="M5.70055 35.6943V37.9878H5.41895V35.2428H5.69294L5.70055 35.6943ZM6.4997 35.225L6.49209 35.5066C6.46164 35.4998 6.43289 35.4956 6.40583 35.4939C6.37877 35.4905 6.34917 35.4888 6.31704 35.4888C6.21048 35.4888 6.11746 35.5125 6.03797 35.5599C5.95848 35.6072 5.89082 35.674 5.83501 35.7603C5.78089 35.8449 5.7386 35.9438 5.70816 36.0571C5.67941 36.1688 5.6625 36.2897 5.65742 36.4199L5.55848 36.463C5.55848 36.2855 5.5737 36.1197 5.60414 35.9658C5.63459 35.8119 5.6811 35.6766 5.74368 35.5599C5.80795 35.4432 5.88829 35.3527 5.98469 35.2884C6.08279 35.2242 6.1978 35.192 6.32972 35.192C6.36017 35.192 6.39145 35.1954 6.42359 35.2022C6.45742 35.2072 6.48279 35.2148 6.4997 35.225Z" fill="white"/>
<path d="M4.36322 37.4956V36.0013C4.36322 35.8728 4.34123 35.7688 4.29726 35.6893C4.25328 35.6081 4.18901 35.5489 4.10445 35.5117C4.01988 35.4745 3.91587 35.4559 3.7924 35.4559C3.6757 35.4559 3.57168 35.4795 3.48035 35.5269C3.39071 35.5726 3.32052 35.6368 3.26978 35.7197C3.22073 35.8009 3.19621 35.8948 3.19621 36.0013L2.9146 35.9988C2.9146 35.8939 2.93575 35.7933 2.97803 35.6969C3.02031 35.5988 3.08035 35.5125 3.15815 35.4381C3.23596 35.362 3.32898 35.302 3.43722 35.258C3.54716 35.214 3.66893 35.192 3.80255 35.192C3.96661 35.192 4.11206 35.2182 4.23891 35.2707C4.36576 35.3231 4.4647 35.4094 4.53574 35.5294C4.60846 35.6495 4.64483 35.8085 4.64483 36.0064V37.4093C4.64483 37.5057 4.65075 37.6047 4.66258 37.7062C4.67612 37.8076 4.69387 37.8905 4.71586 37.9548V37.9878H4.4165C4.39789 37.9286 4.38436 37.8533 4.37591 37.762C4.36745 37.669 4.36322 37.5802 4.36322 37.4956ZM4.42157 36.3844L4.42918 36.6254H3.94208C3.81016 36.6254 3.6943 36.6398 3.59452 36.6685C3.49473 36.6973 3.41101 36.7387 3.34335 36.7929C3.27739 36.847 3.2275 36.9112 3.19367 36.9857C3.15985 37.0601 3.14293 37.1446 3.14293 37.2394C3.14293 37.3611 3.16238 37.4609 3.20128 37.5387C3.24018 37.6148 3.29684 37.6715 3.37126 37.7087C3.44737 37.7442 3.53786 37.762 3.64272 37.762C3.78141 37.762 3.90318 37.7349 4.00804 37.6808C4.1146 37.625 4.2017 37.5514 4.26935 37.4601C4.33701 37.3671 4.38098 37.269 4.40128 37.1658L4.47738 37.3383C4.46047 37.4161 4.42918 37.4956 4.38352 37.5768C4.33785 37.658 4.27865 37.7341 4.20593 37.8051C4.1332 37.8745 4.04694 37.9311 3.94716 37.9751C3.84737 38.0191 3.7349 38.041 3.60974 38.041C3.45921 38.041 3.32729 38.0123 3.21397 37.9548C3.10234 37.8973 3.01524 37.8102 2.95266 37.6935C2.89177 37.5768 2.86133 37.433 2.86133 37.2622C2.86133 37.1353 2.88247 37.0186 2.92475 36.9121C2.96873 36.8055 3.03384 36.7134 3.1201 36.6356C3.20636 36.5561 3.3146 36.4943 3.44483 36.4504C3.57507 36.4064 3.72644 36.3844 3.89895 36.3844H4.42157Z" fill="white"/>
<path d="M2.01183 36.8334H2.30358C2.28667 37.1091 2.2317 37.3366 2.13867 37.5159C2.04565 37.6935 1.91627 37.8254 1.75052 37.9116C1.58646 37.9979 1.38773 38.041 1.15433 38.041C0.976738 38.041 0.816908 38.0064 0.674837 37.937C0.532766 37.8677 0.410991 37.767 0.309512 37.6351C0.209724 37.5032 0.132769 37.3442 0.0786464 37.1582C0.0262155 36.9704 0 36.759 0 36.5239V35.7324C0 35.5007 0.0262155 35.2935 0.0786464 35.1108C0.132769 34.9265 0.210569 34.77 0.312049 34.6415C0.415219 34.5112 0.538686 34.4123 0.682448 34.3446C0.827901 34.277 0.992805 34.2432 1.17716 34.2432C1.40041 34.2432 1.59238 34.2854 1.75305 34.37C1.91542 34.4546 2.04312 34.5857 2.13614 34.7632C2.23085 34.9408 2.28667 35.17 2.30358 35.4508H2.01183C1.9966 35.2241 1.95601 35.0423 1.89005 34.9053C1.82409 34.7683 1.73191 34.6694 1.61352 34.6085C1.49682 34.5459 1.35137 34.5146 1.17716 34.5146C1.0334 34.5146 0.906548 34.5425 0.796612 34.5983C0.688367 34.6525 0.596191 34.732 0.520081 34.8368C0.445663 34.94 0.389004 35.0668 0.350103 35.2174C0.311203 35.3662 0.291753 35.5362 0.291753 35.7273V36.5239C0.291753 36.7116 0.310357 36.8825 0.347566 37.0364C0.384775 37.1886 0.438898 37.3197 0.509933 37.4296C0.58266 37.5396 0.6723 37.6241 0.778853 37.6833C0.887098 37.7408 1.01226 37.7696 1.15433 37.7696C1.33699 37.7696 1.48836 37.7408 1.60845 37.6833C1.72853 37.6258 1.82155 37.5294 1.88751 37.3941C1.95348 37.2571 1.99491 37.0702 2.01183 36.8334Z" fill="white"/>
<path d="M32.9833 30.5051V31.3308H30.4127V30.5051H32.9833ZM30.673 25.4084V31.3308H29.6846V25.4084H30.673ZM32.6376 27.8734V28.6869H30.4127V27.8734H32.6376ZM32.9589 25.4084V26.2382H30.4127V25.4084H32.9589Z" fill="white"/>
<path d="M27.3951 25.4084V31.3308H26.4107V25.4084H27.3951ZM28.9041 25.4084V26.2382H24.918V25.4084H28.9041Z" fill="white"/>
<path d="M20.9844 25.4084H22.7741C23.1646 25.4084 23.4954 25.4762 23.7666 25.6118C24.0377 25.7474 24.2438 25.9481 24.3848 26.2138C24.5285 26.4768 24.6004 26.8036 24.6004 27.1941C24.6004 27.4897 24.5557 27.75 24.4662 27.9751C24.3794 28.2001 24.2533 28.3899 24.0879 28.5445C23.9225 28.6964 23.7232 28.8143 23.49 28.8984L23.2012 29.057H21.6881L21.684 28.2272H22.7497C22.9422 28.2272 23.1022 28.1852 23.2296 28.1011C23.3571 28.0171 23.452 27.9005 23.5144 27.7513C23.5795 27.6022 23.612 27.4327 23.612 27.2429C23.612 27.0395 23.5835 26.8633 23.5266 26.7141C23.4696 26.5623 23.3801 26.4457 23.2581 26.3643C23.1361 26.2803 22.9747 26.2382 22.7741 26.2382H21.9728V31.3308H20.9844V25.4084ZM23.7422 31.3308L22.6155 28.6706L23.6445 28.6665L24.7997 31.2779V31.3308H23.7422Z" fill="white"/>
<path d="M19.9801 27.8856V28.8944C19.9801 29.312 19.9313 29.678 19.8337 29.9926C19.7388 30.3071 19.6005 30.5702 19.4188 30.7817C19.2398 30.9905 19.0229 31.1478 18.768 31.2535C18.5158 31.3593 18.2338 31.4122 17.9219 31.4122C17.6128 31.4122 17.3308 31.3593 17.0759 31.2535C16.8237 31.1478 16.6054 30.9905 16.421 30.7817C16.2393 30.5702 16.0983 30.3071 15.998 29.9926C15.9004 29.678 15.8516 29.312 15.8516 28.8944V27.8856C15.8516 27.4626 15.9004 27.0925 15.998 26.7752C16.0956 26.4552 16.2353 26.1881 16.4169 25.9739C16.6013 25.7597 16.8196 25.5983 17.0718 25.4898C17.3267 25.3814 17.6074 25.3271 17.9138 25.3271C18.2256 25.3271 18.5077 25.3814 18.7598 25.4898C19.0147 25.5983 19.233 25.7597 19.4147 25.9739C19.5964 26.1881 19.736 26.4552 19.8337 26.7752C19.9313 27.0925 19.9801 27.4626 19.9801 27.8856ZM18.9998 28.8944V27.8775C18.9998 27.5765 18.9754 27.3189 18.9266 27.1047C18.8805 26.8877 18.8114 26.7115 18.7192 26.5759C18.627 26.4376 18.5131 26.3359 18.3775 26.2708C18.2446 26.203 18.0901 26.1691 17.9138 26.1691C17.743 26.1691 17.5897 26.203 17.4542 26.2708C17.3213 26.3359 17.2074 26.4376 17.1125 26.5759C17.0203 26.7115 16.9498 26.8877 16.901 27.1047C16.8549 27.3189 16.8318 27.5765 16.8318 27.8775V28.8944C16.8318 29.1899 16.8562 29.4448 16.9051 29.6591C16.9539 29.8706 17.0244 30.0441 17.1166 30.1797C17.2115 30.3126 17.3267 30.4115 17.4623 30.4766C17.5979 30.5417 17.7511 30.5742 17.9219 30.5742C18.0955 30.5742 18.25 30.5417 18.3856 30.4766C18.5212 30.4115 18.6337 30.3126 18.7232 30.1797C18.8154 30.0441 18.8846 29.8706 18.9307 29.6591C18.9768 29.4448 18.9998 29.1899 18.9998 28.8944Z" fill="white"/>
<path d="M14.1065 29.3987H15.0908C15.0718 29.8272 14.9851 30.1919 14.8305 30.4929C14.6759 30.7912 14.4536 31.019 14.1634 31.1762C13.876 31.3335 13.5248 31.4122 13.1099 31.4122C12.7954 31.4122 12.5134 31.3552 12.2639 31.2413C12.0171 31.1274 11.807 30.9634 11.6334 30.7492C11.4599 30.5322 11.327 30.2678 11.2348 29.956C11.1453 29.6441 11.1006 29.2903 11.1006 28.8944V27.8449C11.1006 27.449 11.1467 27.0952 11.2389 26.7833C11.3338 26.4715 11.4694 26.2071 11.6456 25.9902C11.8219 25.7732 12.0361 25.6092 12.2883 25.498C12.5432 25.3841 12.8306 25.3271 13.1506 25.3271C13.5601 25.3271 13.9045 25.4058 14.1838 25.5631C14.4631 25.7203 14.6786 25.9508 14.8305 26.2545C14.9824 26.5583 15.0705 26.9284 15.0949 27.365H14.1106C14.097 27.0694 14.0563 26.8335 13.9885 26.6572C13.9234 26.4783 13.8231 26.3495 13.6875 26.2708C13.5547 26.1922 13.3757 26.1529 13.1506 26.1529C12.9635 26.1529 12.8022 26.1881 12.6666 26.2586C12.5337 26.3291 12.4239 26.4349 12.3371 26.5759C12.2531 26.7142 12.1893 26.8891 12.1459 27.1006C12.1053 27.3094 12.0849 27.5548 12.0849 27.8368V28.8944C12.0849 29.1655 12.1026 29.4055 12.1378 29.6143C12.1731 29.8231 12.23 30.0007 12.3086 30.1472C12.3873 30.2909 12.4917 30.4007 12.6218 30.4766C12.752 30.5498 12.9147 30.5865 13.1099 30.5865C13.3431 30.5865 13.5289 30.5498 13.6672 30.4766C13.8082 30.4034 13.9126 30.28 13.9804 30.1065C14.0482 29.9329 14.0902 29.697 14.1065 29.3987Z" fill="white"/>
<path d="M8.50925 30.5051V31.3308H6.0484V30.5051H8.50925ZM6.30872 25.4084V31.3308H5.32031V25.4084H6.30872Z" fill="white"/>
<path d="M2.46492 26.222L1.03315 31.3308H0L1.87919 25.4084H2.52186L2.46492 26.222ZM3.60789 31.3308L2.17206 26.222L2.10291 25.4084H2.75778L4.64511 31.3308H3.60789ZM3.6323 29.1302V29.96H0.874517V29.1302H3.6323Z" fill="white"/>
<path d="M10.1801 1.40578C8.38782 1.7232 7.2627 2.89549 7.2627 4.45373C7.2627 5.08496 7.41776 5.58273 7.7892 6.14904C8.49601 7.22754 9.78342 7.88042 11.4639 8.01027C11.9255 8.04634 12.5818 8.03552 12.6251 7.99223C12.6323 7.98502 12.6143 7.89484 12.5782 7.79024C12.4808 7.48725 12.5205 7.08687 12.6936 6.68649L12.8342 6.36546L12.827 5.82801C12.8234 5.53223 12.8126 5.28696 12.809 5.27974C12.8018 5.27613 12.5458 5.28696 12.2392 5.3086C11.2656 5.37352 10.3893 5.25449 9.9493 4.99839C9.68605 4.84329 9.54541 4.69901 9.42641 4.46455C9.32904 4.26256 9.31822 4.21566 9.31822 3.88021C9.32183 2.96763 9.71851 2.24261 10.6092 1.54285C10.7318 1.44185 10.8328 1.35528 10.8328 1.34807C10.8328 1.31561 10.5443 1.34086 10.1801 1.40578Z" fill="white"/>
<path d="M22.6616 1.34864C22.6616 1.35586 22.7662 1.44603 22.8924 1.54342C23.7687 2.23237 24.1762 2.97181 24.1762 3.87718C24.1762 4.21624 24.169 4.26313 24.0644 4.46512C23.812 4.97372 23.2819 5.22621 22.301 5.30556C21.9512 5.33442 21.6591 5.33803 21.2552 5.30917C20.9487 5.28753 20.6926 5.27671 20.6854 5.28031C20.6818 5.28753 20.671 5.53281 20.6674 5.82858L20.6602 6.36603L20.8008 6.68706C20.9919 7.13072 21.0172 7.57078 20.8729 7.94591C20.8188 8.0938 22.2072 8.05052 22.9717 7.87738C23.9238 7.66817 24.5981 7.3219 25.2148 6.73034C25.6764 6.29028 25.9144 5.90794 26.1127 5.30196C26.2461 4.89797 26.2678 4.20542 26.1632 3.787C25.8963 2.72292 25.1138 1.93298 23.9634 1.56506C23.5667 1.43521 22.6616 1.28732 22.6616 1.34864Z" fill="white"/>
<path d="M14.8906 4.5693C14.2307 4.64866 13.733 4.8254 13.3255 5.12118L13.1668 5.23661L13.1849 5.68388C13.1957 5.92916 13.2101 6.14197 13.2209 6.15279L13.2368 6.45579C13.2368 6.45579 12.7305 7.55593 13.1091 7.98517L12.8242 8.3062C12.7557 8.39277 12.6295 9.03843 12.6115 9.39913C12.5718 10.135 12.7629 10.6219 13.3183 11.1774C13.7078 11.5706 13.8592 11.8231 13.9638 12.2523C13.9963 12.3966 14.0323 12.5156 14.0431 12.5156C14.054 12.5156 14.09 12.4687 14.1225 12.4146C14.209 12.2703 14.5191 11.9746 14.6922 11.87C14.8617 11.7726 14.8726 11.787 14.7319 11.9457C14.548 12.1585 14.1441 12.7789 14.0359 13.017C13.9782 13.1468 13.9205 13.3416 13.9061 13.4498C13.8592 13.7997 13.9349 13.9945 14.1874 14.1676C14.2956 14.2434 14.3424 14.3083 14.3857 14.4418C14.5155 14.8674 14.8004 15.1199 15.262 15.2173C15.4604 15.257 15.7741 15.2714 15.7741 15.2389C15.7741 15.2281 15.7416 15.1524 15.702 15.0766C15.6299 14.9359 15.6262 14.9323 15.4243 14.9323C15.0889 14.9323 14.8149 14.7159 14.7103 14.3624C14.6886 14.2939 14.6995 14.2831 14.7932 14.2831C15.161 14.2831 15.6803 14.5824 15.9797 14.9684L16.1455 15.1848H16.7478H17.35L17.5231 14.9648C17.826 14.5752 18.3345 14.2831 18.7023 14.2831C18.7961 14.2831 18.8069 14.2939 18.7853 14.3624C18.7348 14.5392 18.5617 14.7736 18.4246 14.8494C18.3201 14.9071 18.2191 14.9323 18.0748 14.9323C17.8693 14.9323 17.8657 14.9323 17.7936 15.0766C17.7539 15.1524 17.7214 15.2281 17.7214 15.2389C17.7214 15.275 18.0568 15.257 18.2912 15.2029C18.6987 15.1055 18.998 14.8349 19.1098 14.4526C19.1531 14.3047 19.1964 14.2434 19.3082 14.1676C19.3839 14.1135 19.4777 14.027 19.5101 13.9765C19.7553 13.6049 19.5281 12.9304 18.8934 12.1188C18.6302 11.787 18.623 11.7653 18.7961 11.8663C18.9728 11.9746 19.2865 12.2703 19.3731 12.4146C19.4055 12.4687 19.4416 12.5156 19.4524 12.5156C19.4632 12.5156 19.4993 12.3966 19.5317 12.2523C19.6363 11.8231 19.7878 11.567 20.1773 11.1774C20.7326 10.6219 20.9237 10.135 20.8841 9.39913C20.8624 8.97711 20.7254 8.33145 20.6497 8.3062L20.3864 7.98517C20.7542 7.56675 20.7817 6.90667 20.2876 6.47382C20.2876 6.47382 20.271 6.26085 20.271 6.15279C20.271 6.06689 20.3035 5.93637 20.3143 5.6947L20.3359 5.25464L20.2097 5.15364C20.1412 5.09593 19.9789 4.99493 19.8491 4.9264C19.1134 4.54406 18.1325 4.45388 17.1084 4.67752C16.773 4.75326 16.7225 4.75326 16.3872 4.68112C15.8859 4.5693 15.2548 4.52241 14.8906 4.5693Z" fill="white"/>
<path d="M11.572 8.25948C11.1897 8.34245 10.6704 8.53001 10.0394 8.81497C9.49482 9.06025 8.58606 9.53637 8.57164 9.57966C8.55722 9.63376 8.98996 9.92233 9.37943 10.1207C9.74726 10.3083 10.1836 10.4237 10.519 10.4237C10.9625 10.4237 11.6513 10.1604 12.0624 9.83576L12.2608 9.67344L12.304 9.28388C12.3293 9.06746 12.3798 8.76086 12.4194 8.60576C12.4988 8.28834 12.4988 8.28834 12.2752 8.22341C12.0985 8.17291 11.947 8.18013 11.572 8.25948Z" fill="white"/>
<path d="M21.2737 8.21207C21.0718 8.25536 20.996 8.30586 21.0213 8.38161C21.0826 8.60163 21.18 9.14269 21.2052 9.38797L21.2304 9.67293L21.4324 9.83163C21.7678 10.1022 22.233 10.3114 22.6369 10.3799C22.965 10.434 23.0083 10.434 23.3581 10.3763C23.6466 10.3258 23.8017 10.2753 24.0865 10.1346C24.4724 9.94706 24.9376 9.63325 24.9232 9.57914C24.8943 9.48536 23.2391 8.69181 22.5034 8.42128C22.0707 8.26257 21.4901 8.16158 21.2737 8.21207Z" fill="white"/>
<path d="M15.1455 15.5383C15.113 15.5924 15.3618 15.9242 15.5097 16.0216C15.8992 16.2777 16.386 16.4473 16.7466 16.4473C17.1036 16.4473 17.6914 16.2417 18.0196 16C18.1422 15.9134 18.3766 15.5852 18.3478 15.5383C18.3225 15.4986 15.1707 15.4986 15.1455 15.5383Z" fill="white"/>
<line y1="22.1222" x2="32.5926" y2="22.1222" stroke="white" stroke-width="0.2"/>
</svg>
