<svg width="161" height="40" viewBox="0 0 161 40" fill="none" xmlns="http://www.w3.org/2000/svg">
<path d="M10.7922 3.28874C6.59908 4.03136 3.9668 6.77397 3.9668 10.4195C3.9668 11.8963 4.32958 13.0609 5.19857 14.3858C6.85219 16.909 9.86413 18.4364 13.7957 18.7402C14.8756 18.8246 16.4111 18.7993 16.5123 18.698C16.5292 18.6811 16.487 18.4702 16.4027 18.2254C16.1749 17.5166 16.2677 16.5799 16.6726 15.6432L17.0017 14.8921L16.9848 13.6347C16.9764 12.9427 16.9511 12.3689 16.9426 12.352C16.9258 12.3436 16.3267 12.3689 15.6096 12.4195C13.3317 12.5714 11.2815 12.293 10.2522 11.6938C9.63634 11.3309 9.3073 10.9934 9.02889 10.4449C8.80109 9.97228 8.77578 9.86258 8.77578 9.07777C8.78422 6.94275 9.71227 5.24655 11.7962 3.60942C12.083 3.37313 12.3192 3.1706 12.3192 3.15372C12.3192 3.07777 11.6443 3.13684 10.7922 3.28874Z" fill="white"/>
<path d="M39.993 3.15528C39.993 3.17216 40.2376 3.38313 40.5329 3.61097C42.5831 5.22279 43.5364 6.95275 43.5364 9.07089C43.5364 9.86414 43.5196 9.97384 43.2749 10.4464C42.6843 11.6363 41.4441 12.227 39.1493 12.4127C38.3309 12.4802 37.6475 12.4886 36.7026 12.4211C35.9855 12.3705 35.3865 12.3452 35.3696 12.3536C35.3612 12.3705 35.3359 12.9443 35.3274 13.6363L35.3105 14.8937L35.6396 15.6447C36.0867 16.6827 36.1458 17.7122 35.8083 18.5899C35.6818 18.9359 38.9299 18.8346 40.7185 18.4295C42.9459 17.9401 44.5236 17.13 45.9662 15.746C47.0462 14.7165 47.603 13.8219 48.067 12.4042C48.3792 11.4591 48.4298 9.83882 48.1851 8.85992C47.5608 6.37047 45.73 4.52237 43.0387 3.66161C42.1106 3.35781 39.993 3.01182 39.993 3.15528Z" fill="white"/>
<path d="M21.8126 10.6904C20.2687 10.876 19.1044 11.2895 18.151 11.9815L17.7798 12.2515L17.822 13.298C17.8473 13.8718 17.881 14.3697 17.9063 14.395L17.9434 15.1039C17.9434 15.1039 16.7589 17.6777 17.6448 18.6819L16.9783 19.433C16.818 19.6355 16.5227 21.1461 16.4805 21.9899C16.3877 23.7115 16.8349 24.8507 18.1341 26.1503C19.0453 27.0701 19.3997 27.6608 19.6443 28.665C19.7203 29.0026 19.8046 29.2811 19.8299 29.2811C19.8552 29.2811 19.9396 29.1714 20.0155 29.0448C20.218 28.7072 20.9436 28.0153 21.3486 27.7705C21.7451 27.5427 21.7704 27.5764 21.4414 27.9477C21.0111 28.4456 20.0662 29.8971 19.8131 30.4541C19.6781 30.7579 19.5431 31.2136 19.5093 31.4667C19.3997 32.2853 19.5768 32.741 20.1674 33.1461C20.4205 33.3233 20.5302 33.4752 20.6314 33.7874C20.9352 34.7832 21.6017 35.3739 22.6816 35.6018C23.1456 35.6946 23.8796 35.7283 23.8796 35.6524C23.8796 35.6271 23.8037 35.4499 23.7109 35.2726C23.5421 34.9435 23.5337 34.9351 23.0612 34.9351C22.2766 34.9351 21.6354 34.4288 21.3908 33.6018C21.3401 33.4414 21.3654 33.4161 21.5848 33.4161C22.4454 33.4161 23.6603 34.1165 24.3605 35.0195L24.7486 35.5258H26.1576H27.5665L27.9715 35.011C28.6802 34.0996 29.8698 33.4161 30.7303 33.4161C30.9497 33.4161 30.975 33.4414 30.9244 33.6018C30.8062 34.0153 30.4013 34.5638 30.0807 34.741C29.836 34.876 29.5998 34.9351 29.2623 34.9351C28.7814 34.9351 28.773 34.9351 28.6042 35.2726C28.5114 35.4499 28.4355 35.6271 28.4355 35.6524C28.4355 35.7368 29.2201 35.6946 29.7685 35.568C30.7219 35.3401 31.4221 34.7072 31.6837 33.8127C31.7849 33.4667 31.8862 33.3233 32.1477 33.1461C32.3249 33.0195 32.5442 32.8169 32.6202 32.6988C33.1939 31.8296 32.6623 30.2515 31.1775 28.3528C30.5616 27.5764 30.5447 27.5258 30.9497 27.7621C31.3631 28.0153 32.0971 28.7072 32.2996 29.0448C32.3755 29.1714 32.4599 29.2811 32.4852 29.2811C32.5105 29.2811 32.5948 29.0026 32.6708 28.665C32.9154 27.6608 33.2698 27.0617 34.181 26.1503C35.4802 24.8507 35.9274 23.7115 35.8346 21.9899C35.784 21.0026 35.4634 19.492 35.2862 19.433L34.6703 18.6819C35.5309 17.703 35.595 16.1587 34.4392 15.1461C34.4392 15.1461 34.4003 14.6478 34.4003 14.395C34.4003 14.194 34.4763 13.8887 34.5016 13.3233L34.5522 12.2937L34.2569 12.0574C34.0966 11.9224 33.7169 11.6861 33.4132 11.5258C31.6921 10.6313 29.3973 10.4203 27.0012 10.9435C26.2166 11.1207 26.0985 11.1207 25.3139 10.952C24.1412 10.6904 22.6647 10.5807 21.8126 10.6904Z" fill="white"/>
<path d="M14.0496 19.3234C13.1552 19.5175 11.9403 19.9563 10.4639 20.623C9.18994 21.1968 7.06387 22.3108 7.03012 22.412C6.99637 22.5386 8.00879 23.2137 8.91997 23.6779C9.78052 24.1167 10.8014 24.3867 11.586 24.3867C12.6237 24.3867 14.2352 23.7707 15.197 23.0112L15.661 22.6314L15.7622 21.7201C15.8213 21.2137 15.9394 20.4964 16.0322 20.1336C16.2178 19.3909 16.2178 19.3909 15.6947 19.239C15.2813 19.1209 14.927 19.1378 14.0496 19.3234Z" fill="white"/>
<path d="M36.7451 19.2128C36.2726 19.314 36.0955 19.4322 36.1545 19.6094C36.2979 20.1242 36.5257 21.39 36.5848 21.9638L36.6439 22.6305L37.1163 23.0018C37.9009 23.6347 38.9893 24.1242 39.9342 24.2845C40.702 24.4111 40.8032 24.4111 41.6216 24.2761C42.2965 24.1579 42.6593 24.0398 43.3258 23.7107C44.2286 23.2719 45.3169 22.5377 45.2832 22.4111C45.2157 22.1917 41.3432 20.3351 39.622 19.7022C38.6096 19.3309 37.2513 19.0946 36.7451 19.2128Z" fill="white"/>
<path d="M22.4091 36.3524C22.3332 36.479 22.9153 37.2554 23.2612 37.4832C24.1724 38.0824 25.3114 38.479 26.155 38.479C26.9903 38.479 28.3655 37.998 29.1332 37.4326C29.4201 37.2301 29.9685 36.4621 29.901 36.3524C29.8419 36.2596 22.4682 36.2596 22.4091 36.3524Z" fill="white"/>
<line x1="68.4707" x2="68.4707" y2="40" stroke="white"/>
<path d="M160.923 16.0805V18.007H154.925V16.0805H160.923ZM155.533 4.18994V18.007H153.227V4.18994H155.533ZM160.116 9.9407V11.8386H154.925V9.9407H160.116ZM160.866 4.18994V6.12584H154.925V4.18994H160.866Z" fill="white"/>
<path d="M147.884 4.18994V18.007H145.587V4.18994H147.884ZM151.404 4.18994V6.12584H142.104V4.18994H151.404Z" fill="white"/>
<path d="M132.929 4.18994H137.104C138.015 4.18994 138.787 4.3481 139.42 4.66443C140.052 4.98075 140.533 5.44891 140.862 6.0689C141.197 6.68257 141.365 7.44491 141.365 8.35592C141.365 9.04551 141.261 9.65285 141.052 10.1779C140.849 10.703 140.555 11.1459 140.169 11.5065C139.783 11.8608 139.318 12.136 138.774 12.3321L138.101 12.7022H134.57L134.561 10.7663H137.047C137.496 10.7663 137.87 10.6682 138.167 10.4721C138.464 10.276 138.686 10.004 138.831 9.65601C138.983 9.30806 139.059 8.91265 139.059 8.4698C139.059 7.99531 138.993 7.58409 138.86 7.23614C138.727 6.88186 138.518 6.60982 138.233 6.42002C137.949 6.2239 137.572 6.12584 137.104 6.12584H135.235V18.007H132.929V4.18994ZM139.363 18.007L136.734 11.8007L139.135 11.7912L141.83 17.8836V18.007H139.363Z" fill="white"/>
<path d="M130.584 9.96903V12.3225C130.584 13.2968 130.47 14.1508 130.243 14.8847C130.021 15.6186 129.698 16.2322 129.275 16.7257C128.857 17.2128 128.351 17.5798 127.756 17.8265C127.168 18.0732 126.51 18.1966 125.782 18.1966C125.061 18.1966 124.403 18.0732 123.809 17.8265C123.22 17.5798 122.711 17.2128 122.281 16.7257C121.857 16.2322 121.528 15.6186 121.294 14.8847C121.066 14.1508 120.952 13.2968 120.952 12.3225V9.96903C120.952 8.9821 121.066 8.11853 121.294 7.37834C121.522 6.63181 121.847 6.00865 122.271 5.50886C122.701 5.00907 123.211 4.63265 123.799 4.37959C124.394 4.12653 125.049 4 125.763 4C126.491 4 127.149 4.12653 127.737 4.37959C128.332 4.63265 128.841 5.00907 129.265 5.50886C129.689 6.00865 130.015 6.63181 130.243 7.37834C130.47 8.11853 130.584 8.9821 130.584 9.96903ZM128.297 12.3225V9.95005C128.297 9.24781 128.24 8.64679 128.126 8.147C128.019 7.64088 127.857 7.22966 127.642 6.91334C127.427 6.59069 127.162 6.35345 126.845 6.20161C126.535 6.04345 126.175 5.96437 125.763 5.96437C125.365 5.96437 125.007 6.04345 124.691 6.20161C124.381 6.35345 124.115 6.59069 123.894 6.91334C123.679 7.22966 123.514 7.64088 123.4 8.147C123.293 8.64679 123.239 9.24781 123.239 9.95005V12.3225C123.239 13.0121 123.296 13.6067 123.41 14.1065C123.524 14.6 123.688 15.0049 123.903 15.3212C124.125 15.6312 124.394 15.8621 124.71 16.014C125.026 16.1658 125.384 16.2417 125.782 16.2417C126.187 16.2417 126.548 16.1658 126.864 16.014C127.181 15.8621 127.443 15.6312 127.652 15.3212C127.867 15.0049 128.028 14.6 128.136 14.1065C128.243 13.6067 128.297 13.0121 128.297 12.3225Z" fill="white"/>
<path d="M116.881 13.4992H119.178C119.133 14.4988 118.931 15.3497 118.57 16.0519C118.21 16.7478 117.691 17.2793 117.014 17.6462C116.343 18.0131 115.524 18.1966 114.556 18.1966C113.822 18.1966 113.164 18.0637 112.582 17.798C112.007 17.5323 111.516 17.1496 111.111 16.6498C110.706 16.1437 110.396 15.5268 110.181 14.7993C109.973 14.0717 109.868 13.2461 109.868 12.3225V9.87413C109.868 8.95046 109.976 8.12486 110.191 7.39732C110.412 6.66977 110.729 6.05294 111.14 5.54682C111.551 5.0407 112.051 4.65795 112.639 4.39857C113.234 4.13286 113.904 4 114.651 4C115.606 4 116.41 4.18347 117.061 4.5504C117.713 4.91734 118.216 5.45509 118.57 6.16365C118.925 6.87222 119.13 7.73578 119.187 8.75434H116.891C116.859 8.06476 116.764 7.51436 116.606 7.10313C116.454 6.68559 116.22 6.38508 115.904 6.20161C115.594 6.01814 115.176 5.92641 114.651 5.92641C114.214 5.92641 113.838 6.00865 113.522 6.17314C113.212 6.33763 112.955 6.58436 112.753 6.91334C112.557 7.23599 112.408 7.64405 112.307 8.13751C112.212 8.62465 112.165 9.1972 112.165 9.85515V12.3225C112.165 12.9551 112.206 13.515 112.288 14.0022C112.37 14.4893 112.503 14.9037 112.687 15.2453C112.87 15.5806 113.114 15.8368 113.417 16.014C113.721 16.1848 114.101 16.2702 114.556 16.2702C115.1 16.2702 115.534 16.1848 115.856 16.014C116.185 15.8432 116.429 15.5553 116.587 15.1504C116.745 14.7455 116.843 14.1951 116.881 13.4992Z" fill="white"/>
<path d="M103.823 16.0805V18.007H98.0815V16.0805H103.823ZM98.6888 4.18994V18.007H96.3828V4.18994H98.6888Z" fill="white"/>
<path d="M89.7215 6.08788L86.3811 18.007H83.9707L88.3549 4.18994H89.8543L89.7215 6.08788ZM92.3881 18.007L89.0382 6.08788L88.8769 4.18994H90.4047L94.8079 18.007H92.3881ZM92.445 12.873V14.8089H86.011V12.873H92.445Z" fill="white"/>
<path d="M153.121 28.4475V33.5378H152.458V27.1335H153.091L153.121 28.4475ZM152.997 29.9391L152.683 29.7674C152.699 29.3886 152.756 29.0335 152.855 28.702C152.957 28.3706 153.097 28.0786 153.275 27.826C153.456 27.5695 153.677 27.3703 153.938 27.2282C154.198 27.0862 154.494 27.0151 154.826 27.0151C155.086 27.0151 155.321 27.0585 155.53 27.1454C155.743 27.2282 155.926 27.3604 156.08 27.5419C156.234 27.7195 156.353 27.9523 156.436 28.2403C156.518 28.5245 156.56 28.8697 156.56 29.2762V33.5378H155.903V29.2998C155.903 28.8776 155.848 28.5462 155.737 28.3055C155.631 28.0648 155.481 27.8951 155.287 27.7964C155.098 27.6938 154.875 27.6425 154.618 27.6425C154.322 27.6425 154.072 27.7155 153.867 27.8615C153.662 28.0075 153.496 28.1969 153.37 28.4298C153.247 28.6626 153.156 28.9131 153.097 29.1815C153.038 29.4458 153.005 29.6984 152.997 29.9391ZM156.554 29.3827L156.11 29.4064C156.126 29.0946 156.185 28.7967 156.288 28.5126C156.39 28.2246 156.532 27.9701 156.714 27.7491C156.895 27.5242 157.112 27.3466 157.365 27.2164C157.621 27.0822 157.911 27.0151 158.235 27.0151C158.515 27.0151 158.766 27.0605 158.987 27.1513C159.208 27.2381 159.393 27.3762 159.543 27.5656C159.697 27.755 159.813 27.9977 159.892 28.2936C159.971 28.5896 160.011 28.9447 160.011 29.359V33.5378H159.348V29.3531C159.348 28.9072 159.292 28.56 159.182 28.3114C159.075 28.0628 158.925 27.8892 158.732 27.7905C158.543 27.6879 158.322 27.6386 158.069 27.6425C157.821 27.6425 157.602 27.6978 157.412 27.8083C157.227 27.9188 157.071 28.0608 156.945 28.2344C156.822 28.4041 156.727 28.5915 156.66 28.7967C156.597 28.998 156.562 29.1933 156.554 29.3827Z" fill="white"/>
<path d="M150.073 32.0583V27.1338H150.73V33.538H150.09L150.073 32.0583ZM150.191 30.8627L150.511 30.8509C150.511 31.2533 150.469 31.6262 150.386 31.9695C150.308 32.3089 150.183 32.6048 150.014 32.8574C149.848 33.1099 149.631 33.3072 149.362 33.4492C149.098 33.5874 148.776 33.6564 148.398 33.6564C148.133 33.6564 147.891 33.611 147.67 33.5203C147.453 33.4295 147.267 33.2894 147.113 33.1C146.959 32.9067 146.839 32.6581 146.752 32.3542C146.669 32.0465 146.628 31.6736 146.628 31.2356V27.1338H147.285V31.2474C147.285 31.5828 147.316 31.8669 147.38 32.0997C147.443 32.3286 147.53 32.5101 147.64 32.6443C147.754 32.7784 147.883 32.8751 148.025 32.9343C148.167 32.9935 148.319 33.0231 148.481 33.0231C148.911 33.0231 149.248 32.9225 149.493 32.7212C149.741 32.52 149.919 32.2556 150.025 31.9281C150.136 31.6006 150.191 31.2454 150.191 30.8627Z" fill="white"/>
<path d="M144.811 27.1338V33.538H144.154V27.1338H144.811ZM144.054 25.293C144.054 25.151 144.091 25.0346 144.166 24.9438C144.245 24.8491 144.354 24.8018 144.492 24.8018C144.626 24.8018 144.73 24.8491 144.805 24.9438C144.884 25.0346 144.924 25.151 144.924 25.293C144.924 25.4232 144.884 25.5337 144.805 25.6245C144.73 25.7152 144.626 25.7606 144.492 25.7606C144.354 25.7606 144.245 25.7152 144.166 25.6245C144.091 25.5337 144.054 25.4232 144.054 25.293Z" fill="white"/>
<path d="M135.472 28.4475V33.5378H134.809V27.1335H135.442L135.472 28.4475ZM135.347 29.9391L135.034 29.7674C135.049 29.3886 135.107 29.0335 135.205 28.702C135.308 28.3706 135.448 28.0786 135.625 27.826C135.807 27.5695 136.028 27.3703 136.288 27.2282C136.549 27.0862 136.845 27.0151 137.176 27.0151C137.437 27.0151 137.671 27.0585 137.88 27.1454C138.094 27.2282 138.277 27.3604 138.431 27.5419C138.585 27.7195 138.703 27.9523 138.786 28.2403C138.869 28.5245 138.91 28.8697 138.91 29.2762V33.5378H138.253V29.2998C138.253 28.8776 138.198 28.5462 138.088 28.3055C137.981 28.0648 137.831 27.8951 137.638 27.7964C137.448 27.6938 137.225 27.6425 136.969 27.6425C136.673 27.6425 136.422 27.7155 136.217 27.8615C136.012 28.0075 135.846 28.1969 135.72 28.4298C135.598 28.6626 135.507 28.9131 135.448 29.1815C135.389 29.4458 135.355 29.6984 135.347 29.9391ZM138.904 29.3827L138.461 29.4064C138.476 29.0946 138.536 28.7967 138.638 28.5126C138.741 28.2246 138.883 27.9701 139.064 27.7491C139.246 27.5242 139.463 27.3466 139.715 27.2164C139.972 27.0822 140.262 27.0151 140.585 27.0151C140.866 27.0151 141.116 27.0605 141.337 27.1513C141.558 27.2381 141.744 27.3762 141.894 27.5656C142.047 27.755 142.164 27.9977 142.243 28.2936C142.322 28.5896 142.361 28.9447 142.361 29.359V33.5378H141.698V29.3531C141.698 28.9072 141.643 28.56 141.532 28.3114C141.426 28.0628 141.276 27.8892 141.083 27.7905C140.893 27.6879 140.672 27.6386 140.42 27.6425C140.171 27.6425 139.952 27.6978 139.763 27.8083C139.577 27.9188 139.421 28.0608 139.295 28.2344C139.173 28.4041 139.078 28.5915 139.011 28.7967C138.948 28.998 138.912 29.1933 138.904 29.3827Z" fill="white"/>
<path d="M131.398 33.662C131.043 33.662 130.716 33.6048 130.416 33.4904C130.12 33.372 129.863 33.1945 129.646 32.9577C129.433 32.717 129.268 32.4151 129.149 32.0521C129.031 31.6851 128.972 31.2531 128.972 30.7559V30.016C128.972 29.4873 129.035 29.0335 129.161 28.6547C129.287 28.2719 129.457 27.9602 129.67 27.7195C129.887 27.4748 130.134 27.2973 130.41 27.1868C130.686 27.0724 130.978 27.0151 131.286 27.0151C131.637 27.0151 131.945 27.0724 132.209 27.1868C132.478 27.3012 132.703 27.4748 132.884 27.7076C133.066 27.9405 133.202 28.2344 133.292 28.5896C133.383 28.9407 133.429 29.357 133.429 29.8384V30.3889H129.368V29.7733H132.772V29.6076C132.764 29.1893 132.705 28.8342 132.594 28.5422C132.487 28.2463 132.326 28.0213 132.109 27.8675C131.896 27.7096 131.623 27.6307 131.292 27.6307C131.047 27.6307 130.822 27.6761 130.617 27.7668C130.412 27.8536 130.234 27.9918 130.084 28.1812C129.938 28.3706 129.826 28.6172 129.747 28.921C129.672 29.2249 129.635 29.5899 129.635 30.016V30.7559C129.635 31.1465 129.676 31.4859 129.759 31.7739C129.846 32.058 129.968 32.2948 130.126 32.4842C130.284 32.6696 130.473 32.8097 130.694 32.9044C130.915 32.9952 131.16 33.0406 131.428 33.0406C131.759 33.0406 132.05 32.9853 132.298 32.8748C132.547 32.7604 132.768 32.5888 132.961 32.3599L133.31 32.7979C133.192 32.9518 133.046 33.0958 132.872 33.23C132.699 33.3602 132.491 33.4648 132.251 33.5437C132.01 33.6226 131.726 33.662 131.398 33.662Z" fill="white"/>
<path d="M126.391 28.1871V33.5378H125.734V27.1335H126.374L126.391 28.1871ZM128.256 27.0921L128.238 27.7491C128.167 27.7333 128.1 27.7234 128.037 27.7195C127.974 27.7116 127.905 27.7076 127.83 27.7076C127.581 27.7076 127.364 27.7629 127.179 27.8734C126.993 27.9839 126.835 28.1397 126.705 28.341C126.579 28.5383 126.48 28.7691 126.409 29.0335C126.342 29.2939 126.303 29.576 126.291 29.8799L126.06 29.9805C126.06 29.5662 126.095 29.1795 126.166 28.8204C126.237 28.4613 126.346 28.1456 126.492 27.8734C126.642 27.6011 126.829 27.39 127.054 27.2401C127.283 27.0901 127.551 27.0151 127.859 27.0151C127.93 27.0151 128.003 27.023 128.078 27.0388C128.157 27.0507 128.216 27.0684 128.256 27.0921Z" fill="white"/>
<path d="M120.49 28.3646V36H119.833V27.1335H120.443L120.49 28.3646ZM124.207 30.0397V30.6375C124.207 31.1544 124.162 31.6023 124.071 31.9811C123.98 32.3599 123.846 32.6736 123.668 32.9222C123.491 33.1708 123.274 33.3562 123.017 33.4786C122.765 33.6009 122.477 33.662 122.153 33.662C121.834 33.662 121.551 33.6068 121.307 33.4963C121.062 33.3858 120.853 33.23 120.679 33.0287C120.51 32.8235 120.374 32.5848 120.271 32.3125C120.168 32.0363 120.097 31.7325 120.058 31.401V29.43C120.101 29.067 120.176 28.7375 120.283 28.4416C120.389 28.1456 120.527 27.8911 120.697 27.6781C120.867 27.465 121.07 27.3012 121.307 27.1868C121.548 27.0724 121.824 27.0151 122.135 27.0151C122.467 27.0151 122.761 27.0724 123.017 27.1868C123.274 27.2973 123.491 27.4748 123.668 27.7195C123.846 27.9602 123.98 28.2739 124.071 28.6606C124.162 29.0433 124.207 29.503 124.207 30.0397ZM123.55 30.6375V30.0397C123.55 29.6254 123.519 29.2702 123.455 28.9743C123.392 28.6744 123.296 28.4258 123.165 28.2285C123.039 28.0312 122.875 27.8852 122.674 27.7905C122.477 27.6919 122.244 27.6425 121.976 27.6425C121.703 27.6425 121.469 27.6938 121.271 27.7964C121.078 27.8951 120.916 28.0273 120.786 28.193C120.66 28.3587 120.557 28.5402 120.478 28.7375C120.403 28.9309 120.348 29.1223 120.312 29.3117V31.5549C120.38 31.8154 120.48 32.06 120.614 32.2889C120.748 32.5177 120.928 32.7012 121.153 32.8393C121.378 32.9735 121.656 33.0406 121.987 33.0406C122.256 33.0406 122.487 32.9932 122.68 32.8985C122.877 32.7999 123.039 32.6519 123.165 32.4546C123.296 32.2534 123.392 32.0028 123.455 31.7029C123.519 31.403 123.55 31.0479 123.55 30.6375Z" fill="white"/>
<path d="M114.891 31.9633C114.891 31.7858 114.844 31.624 114.749 31.478C114.659 31.332 114.507 31.188 114.294 31.0459C114.084 30.9038 113.798 30.75 113.435 30.5842C113.147 30.454 112.889 30.3277 112.66 30.2054C112.431 30.0831 112.238 29.9529 112.08 29.8148C111.926 29.6767 111.806 29.5208 111.719 29.3472C111.636 29.1696 111.595 28.9605 111.595 28.7198C111.595 28.4791 111.64 28.2561 111.731 28.0509C111.821 27.8458 111.95 27.6662 112.115 27.5123C112.285 27.3545 112.486 27.2322 112.719 27.1454C112.956 27.0585 113.22 27.0151 113.512 27.0151C113.931 27.0151 114.288 27.096 114.584 27.2578C114.88 27.4156 115.108 27.6346 115.27 27.9148C115.432 28.195 115.513 28.5185 115.513 28.8855H114.85C114.85 28.6645 114.797 28.4593 114.69 28.2699C114.588 28.0805 114.438 27.9266 114.24 27.8083C114.043 27.6899 113.8 27.6307 113.512 27.6307C113.216 27.6307 112.974 27.684 112.784 27.7905C112.599 27.8931 112.463 28.0253 112.376 28.1871C112.293 28.3489 112.252 28.5185 112.252 28.6961C112.252 28.8263 112.271 28.9427 112.311 29.0453C112.354 29.144 112.425 29.2406 112.524 29.3353C112.626 29.4261 112.768 29.5228 112.95 29.6254C113.135 29.724 113.364 29.8424 113.637 29.9805C114.031 30.1502 114.371 30.3199 114.655 30.4895C114.939 30.6553 115.158 30.8506 115.312 31.0755C115.466 31.2965 115.542 31.5766 115.542 31.916C115.542 32.1804 115.495 32.4211 115.4 32.6381C115.306 32.8512 115.172 33.0346 114.998 33.1885C114.824 33.3385 114.613 33.4549 114.365 33.5378C114.12 33.6167 113.848 33.6561 113.548 33.6561C113.09 33.6561 112.701 33.5693 112.382 33.3957C112.066 33.2221 111.825 32.9932 111.66 32.7091C111.498 32.425 111.417 32.1172 111.417 31.7858H112.074C112.09 32.1212 112.173 32.3796 112.323 32.5611C112.476 32.7426 112.664 32.8669 112.885 32.934C113.106 33.0011 113.327 33.0346 113.548 33.0346C113.836 33.0346 114.08 32.9873 114.282 32.8926C114.483 32.7979 114.635 32.6696 114.737 32.5079C114.84 32.3421 114.891 32.1606 114.891 31.9633Z" fill="white"/>
<path d="M108.243 33.662C107.888 33.662 107.561 33.6048 107.261 33.4904C106.965 33.372 106.708 33.1945 106.491 32.9577C106.278 32.717 106.112 32.4151 105.994 32.0521C105.876 31.6851 105.816 31.2531 105.816 30.7559V30.016C105.816 29.4873 105.88 29.0335 106.006 28.6547C106.132 28.2719 106.302 27.9602 106.515 27.7195C106.732 27.4748 106.978 27.2973 107.255 27.1868C107.531 27.0724 107.823 27.0151 108.131 27.0151C108.482 27.0151 108.79 27.0724 109.054 27.1868C109.322 27.3012 109.547 27.4748 109.729 27.7076C109.91 27.9405 110.046 28.2344 110.137 28.5896C110.228 28.9407 110.273 29.357 110.273 29.8384V30.3889H106.213V29.7733H109.616V29.6076C109.608 29.1893 109.549 28.8342 109.439 28.5422C109.332 28.2463 109.17 28.0213 108.953 27.8675C108.74 27.7096 108.468 27.6307 108.137 27.6307C107.892 27.6307 107.667 27.6761 107.462 27.7668C107.257 27.8536 107.079 27.9918 106.929 28.1812C106.783 28.3706 106.671 28.6172 106.592 28.921C106.517 29.2249 106.479 29.5899 106.479 30.016V30.7559C106.479 31.1465 106.521 31.4859 106.604 31.7739C106.69 32.058 106.813 32.2948 106.971 32.4842C107.128 32.6696 107.318 32.8097 107.539 32.9044C107.76 32.9952 108.004 33.0406 108.273 33.0406C108.604 33.0406 108.894 32.9853 109.143 32.8748C109.391 32.7604 109.612 32.5888 109.806 32.3599L110.155 32.7979C110.037 32.9518 109.891 33.0958 109.717 33.23C109.543 33.3602 109.336 33.4648 109.095 33.5437C108.855 33.6226 108.571 33.662 108.243 33.662Z" fill="white"/>
<path d="M100.941 28.5008V33.5378H100.284V27.1335H100.912L100.941 28.5008ZM100.793 29.9391L100.503 29.7674C100.519 29.3886 100.58 29.0335 100.687 28.702C100.797 28.3706 100.947 28.0786 101.136 27.826C101.326 27.5695 101.549 27.3703 101.805 27.2282C102.062 27.0862 102.346 27.0151 102.658 27.0151C102.922 27.0151 103.161 27.0585 103.374 27.1454C103.587 27.2322 103.766 27.3683 103.912 27.5538C104.062 27.7392 104.177 27.9819 104.256 28.2818C104.335 28.5817 104.374 28.9427 104.374 29.3649V33.5378H103.717V29.359C103.717 28.921 103.668 28.5777 103.569 28.3291C103.471 28.0805 103.328 27.9049 103.143 27.8023C102.961 27.6958 102.742 27.6425 102.486 27.6425C102.214 27.6425 101.973 27.7155 101.764 27.8615C101.559 28.0075 101.383 28.1969 101.237 28.4298C101.095 28.6626 100.987 28.9131 100.912 29.1815C100.837 29.4458 100.797 29.6984 100.793 29.9391Z" fill="white"/>
<path d="M97.2703 28.1871V33.5378H96.6133V27.1335H97.2525L97.2703 28.1871ZM99.1347 27.0921L99.117 27.7491C99.0459 27.7333 98.9789 27.7234 98.9157 27.7195C98.8526 27.7116 98.7835 27.7076 98.7086 27.7076C98.46 27.7076 98.2429 27.7629 98.0575 27.8734C97.872 27.9839 97.7142 28.1397 97.584 28.341C97.4577 28.5383 97.3591 28.7691 97.288 29.0335C97.221 29.2939 97.1815 29.576 97.1697 29.8799L96.9388 29.9805C96.9388 29.5662 96.9743 29.1795 97.0454 28.8204C97.1164 28.4613 97.2249 28.1456 97.3709 27.8734C97.5208 27.6011 97.7083 27.39 97.9332 27.2401C98.1621 27.0901 98.4304 27.0151 98.7382 27.0151C98.8092 27.0151 98.8822 27.023 98.9572 27.0388C99.0361 27.0507 99.0953 27.0684 99.1347 27.0921Z" fill="white"/>
<path d="M94.1514 32.3895V28.9033C94.1514 28.6034 94.1001 28.3607 93.9976 28.1752C93.895 27.9858 93.745 27.8477 93.5477 27.7609C93.3504 27.6741 93.1077 27.6307 92.8197 27.6307C92.5474 27.6307 92.3047 27.6859 92.0917 27.7964C91.8825 27.903 91.7188 28.0529 91.6004 28.2463C91.486 28.4357 91.4288 28.6547 91.4288 28.9033L90.7718 28.8973C90.7718 28.6527 90.8211 28.4179 90.9197 28.193C91.0184 27.9641 91.1585 27.7629 91.34 27.5893C91.5215 27.4117 91.7385 27.2716 91.991 27.169C92.2475 27.0664 92.5316 27.0151 92.8434 27.0151C93.2261 27.0151 93.5655 27.0763 93.8614 27.1986C94.1574 27.3209 94.3882 27.5222 94.5539 27.8023C94.7236 28.0825 94.8084 28.4534 94.8084 28.9151V32.1882C94.8084 32.4132 94.8223 32.644 94.8499 32.8808C94.8814 33.1175 94.9229 33.3109 94.9742 33.4608V33.5378H94.2757C94.2323 33.3996 94.2008 33.2241 94.181 33.011C94.1613 32.7939 94.1514 32.5868 94.1514 32.3895ZM94.2876 29.797L94.3053 30.3593H93.1689C92.8611 30.3593 92.5908 30.3928 92.358 30.4599C92.1252 30.527 91.9299 30.6237 91.772 30.75C91.6182 30.8762 91.5018 31.0262 91.4228 31.1998C91.3439 31.3734 91.3045 31.5707 91.3045 31.7917C91.3045 32.0758 91.3498 32.3086 91.4406 32.4901C91.5313 32.6677 91.6635 32.7999 91.8372 32.8867C92.0147 32.9695 92.2258 33.011 92.4705 33.011C92.794 33.011 93.0782 32.9478 93.3228 32.8216C93.5714 32.6914 93.7746 32.5197 93.9324 32.3066C94.0903 32.0896 94.1929 31.8607 94.2402 31.62L94.4178 32.0225C94.3783 32.204 94.3053 32.3895 94.1988 32.5789C94.0923 32.7683 93.9541 32.9459 93.7845 33.1116C93.6148 33.2734 93.4136 33.4056 93.1807 33.5082C92.9479 33.6108 92.6855 33.662 92.3935 33.662C92.0423 33.662 91.7346 33.595 91.4702 33.4608C91.2098 33.3266 91.0065 33.1234 90.8605 32.8512C90.7185 32.5789 90.6475 32.2435 90.6475 31.845C90.6475 31.549 90.6968 31.2767 90.7954 31.0281C90.898 30.7796 91.0499 30.5645 91.2512 30.383C91.4524 30.1975 91.705 30.0535 92.0088 29.9509C92.3126 29.8483 92.6658 29.797 93.0683 29.797H94.2876Z" fill="white"/>
<path d="M88.6644 30.8449H89.3451C89.3056 31.4881 89.1774 32.0189 88.9603 32.4371C88.7433 32.8514 88.4414 33.1592 88.0547 33.3605C87.672 33.5617 87.2083 33.6623 86.6638 33.6623C86.2495 33.6623 85.8766 33.5814 85.5451 33.4197C85.2137 33.2579 84.9296 33.0231 84.6928 32.7153C84.46 32.4075 84.2805 32.0366 84.1542 31.6026C84.0319 31.1646 83.9707 30.6713 83.9707 30.1228V28.2761C83.9707 27.7356 84.0319 27.2522 84.1542 26.826C84.2805 26.3959 84.462 26.0309 84.6987 25.731C84.9394 25.4272 85.2275 25.1964 85.5629 25.0385C85.9022 24.8807 86.287 24.8018 86.7171 24.8018C87.2379 24.8018 87.6858 24.9004 88.0607 25.0977C88.4395 25.295 88.7374 25.6008 88.9544 26.0151C89.1754 26.4295 89.3056 26.9641 89.3451 27.6191H88.6644C88.6289 27.0904 88.5342 26.6662 88.3803 26.3466C88.2264 26.027 88.0113 25.7961 87.7351 25.6541C87.4628 25.5081 87.1235 25.4351 86.7171 25.4351C86.3817 25.4351 86.0857 25.5002 85.8292 25.6304C85.5767 25.7567 85.3616 25.9421 85.1841 26.1868C85.0105 26.4275 84.8783 26.7234 84.7875 27.0746C84.6968 27.4219 84.6514 27.8184 84.6514 28.2643V30.1228C84.6514 30.5608 84.6948 30.9594 84.7816 31.3185C84.8684 31.6736 84.9947 31.9794 85.1604 32.2359C85.3301 32.4924 85.5392 32.6897 85.7878 32.8278C86.0403 32.9619 86.3323 33.029 86.6638 33.029C87.09 33.029 87.4431 32.9619 87.7233 32.8278C88.0034 32.6936 88.2205 32.4687 88.3744 32.153C88.5282 31.8334 88.6249 31.3974 88.6644 30.8449Z" fill="white"/>
</svg>
